<?xml version="1.0" encoding="utf-8"?>
<!-- Generator: Adobe Illustrator 19.0.0, SVG Export Plug-In . SVG Version: 6.00 Build 0)  -->
<svg version="1.1" id="svg" xmlns="http://www.w3.org/2000/svg" xmlns:xlink="http://www.w3.org/1999/xlink" x="0px" y="0px"
	 viewBox="-97 162.2 400 517.7" style="enable-background:new -97 162.2 400 517.7;" xml:space="preserve">
<style type="text/css">
	.st0{fill:#C4CBCB;}
	.st1{display:none;fill:#FBFBFC;}
	.st2{fill:#DCDCDC;}
	.st3{fill:#E3E4E4;}
	.st4{fill:#ECECEC;}
</style>
<path id="path0" class="st0" d="M-55.4,254.1c-4.2,1.4-6.8,3.5-8.5,6.7l-1.3,2.4l0.1,107.1l0.1,107.1l0.9,1.9
	c2.1,4.3,5.6,6.7,10.8,7.3c4.6,0.5,207.8,0.4,210.5-0.1c4-0.8,7.7-3.9,9.5-7.8l0.9-1.9V370V263.2l-1.1-2.2c-1.5-2.8-3.1-4.5-5.9-5.9
	l-2.2-1.2l-106.6-0.1C-6.8,253.9-55.1,253.9-55.4,254.1 M142,279c0.1,0.1,0.2,35.2,0.2,78l0,77.8H51.3h-90.9l-0.1-77.6
	c-0.1-42.7,0-77.8,0.1-78.1C-39.4,278.6,141.4,278.5,142,279 M181.1,303.9l0.1,12.5l1,0.5c0.5,0.3,3,0.8,5.4,1.1
	c4.3,0.6,8.3,1.3,13.9,2.3c3,0.5,3.4,1.1,3,3.7c-0.1,0.7-1,5.5-1.9,10.7c-2.2,12.3-5.6,32.4-6,35.4c-0.2,1.3-0.8,5.1-1.4,8.4
	c-0.6,3.3-1.3,7.6-1.6,9.6c-0.3,2-0.9,5.7-1.4,8.2c-0.8,4.5-1.3,7.1-2.6,15.4c-0.3,2.2-0.8,4.8-1,5.8c-0.2,1-1.4,8-2.6,15.6
	c-1.2,7.6-2.5,15.2-2.8,17c-1.3,7.2-2.2,14.8-2.6,21.6c-0.7,14-5,21.1-15.4,25.8c-5.5,2.5-1.7,2.4-78.9,2.4
	c-42.8,0-69.6,0.2-68.5,0.4c1,0.2,8.3,1.4,16.2,2.8c7.9,1.3,18,3,22.4,3.8c11.4,2,14.3,2.4,22.4,3.8c4,0.7,9.4,1.5,12,2
	s7.8,1.3,11.4,1.8c3.6,0.6,8,1.3,9.8,1.6c1.8,0.3,5.7,1,8.8,1.6c3.1,0.6,8.5,1.5,12,2c3.5,0.6,7.8,1.3,9.6,1.6c1.8,0.3,4,0.7,5,0.8
	c1,0.1,3.1,0.5,4.6,0.8c3.5,0.7,11.2,2,16.2,2.8c2.1,0.3,6.1,1,9,1.4c9.7,1.6,12,1.3,16.3-2.1c3.4-2.8,4.2-5.7,8.2-30.9
	c0.6-3.5,1.4-8.7,1.9-11.6c0.9-5.2,2.8-16.6,6.6-39.8c2-12.3,2.6-16.1,4.8-28c0.7-3.6,1.7-10,2.4-14.2c0.7-4.2,1.5-9.1,1.8-11
	c0.9-4.7,2.5-14.3,3.2-18.6c1.5-9.8,3.1-19.1,4.2-25.2c1.7-9.1,2.8-15.8,3.4-20.4c0.4-2.6,1-6.8,1.5-9.2c1.3-6.7,0.3-10.9-3.1-14.4
	c-2.7-2.7-5.3-3.5-15-5.1c-2.8-0.4-7.4-1.2-10.1-1.6c-2.8-0.4-7.2-1.2-9.9-1.6c-2.7-0.4-6.4-1.1-8.3-1.4c-1.9-0.3-3.5-0.6-3.7-0.6
	S181,297,181.1,303.9 M47.8,304.8c-17.5,3.4-26.1,16.6-23.4,35.8c1.2,8.6,3.9,15.2,8.7,21.5c5,6.6,4.9,6.4,5.1,9.1
	c0.2,3.6-3.3,8.6-6.1,8.6c-0.5,0-8.8,3.7-12.8,5.7c-8.6,4.3-15.6,10-17.9,14.6L0,402.8v9.2v9.2l51.3,0.1l51.3,0.1v-8.5
	c0-9.4-0.3-11.2-2.4-14.3c-3.9-5.8-10.3-10.1-24.3-16.5c-9.7-4.4-11.1-5.6-11.6-9.6c-0.3-3,0.4-4.7,3-7.6
	c11.2-12.5,14.6-32.7,7.8-46.1C70.4,309.6,57.4,303,47.8,304.8 M238.1,356.1c-0.4,0.7-1.6,7-3.5,18.9c-0.9,5.7-1,5.5,2.2,6
	c4,0.7,6.2,1.6,6.2,2.4c0,0.4-1.1,5.1-2.4,10.5c-1.3,5.3-2.9,12.2-3.6,15.3c-0.7,3.1-1.5,6.3-1.7,7.2c-0.2,0.9-0.8,3.1-1.1,5
	c-0.4,1.9-1.5,6.5-2.4,10.4c-0.9,3.9-2,8.4-2.4,10.2c-0.4,1.8-1.7,7.3-2.9,12.2c-1.2,5-2.7,11.2-3.3,13.8c-1.6,6.9-3.7,16.3-4.6,20
	c-1.2,5.2-2.8,12.2-3.5,15c-0.3,1.4-0.9,3.7-1.2,5c-0.3,1.3-1.1,4.7-1.8,7.6c-0.7,2.9-2,8.2-2.9,11.9l-1.6,6.7l-2.5-0.1
	c-2.4-0.1-2.6,0-5.6,2c-6.7,4.6-12.2,5.6-21.1,4c-6.7-1.2-9-1.6-25.7-4.2c-3.5-0.6-7.1-1.2-8-1.4c-0.9-0.2-4.3-0.8-7.6-1.4
	c-3.3-0.6-10.4-1.7-15.8-2.6c-5.4-0.9-10.9-1.8-12.2-2c-2.6-0.4-17.3-2.9-27.2-4.6c-3.3-0.6-9-1.5-12.8-2
	c-3.7-0.5-10.7-1.7-15.4-2.6c-8.2-1.5-15.1-2.6-26.6-4.4c-6.1-0.9-20-3.4-24-4.2c-3.7-0.7-3-2.1-5.8,11.4c-2.2,10.4,0.6,16,9,18.2
	c6.4,1.7,25.8,6.3,38.6,9.2c5.4,1.2,10.5,2.4,11.4,2.6c0.9,0.2,3.1,0.7,5,1.2c1.9,0.4,7.8,1.9,13.2,3.2c10.2,2.5,24.7,5.9,35,8.3
	c3.3,0.8,7.5,1.7,9.4,2.2c1.9,0.4,4.1,1,5,1.2c0.9,0.2,3.9,0.9,6.6,1.6c6.9,1.7,8.4,2.1,20.4,4.8c5.8,1.3,11.3,2.6,12.2,2.8
	c0.9,0.2,2.9,0.7,4.6,1c1.7,0.4,4.1,0.9,5.4,1.2c1.3,0.3,10.2,2.3,19.7,4.6c18.5,4.3,19,4.4,21.9,3.4c5.3-1.8,7.8-5.3,9.5-13.2
	c0.4-1.8,1-4.2,1.3-5.4s0.8-3.4,1.1-4.8c0.7-3.6,2.2-10.1,5.2-22c1.4-5.6,3.3-13.4,4.1-17.2c1.9-8.4,4.9-21.3,6.3-27.6
	c0.6-2.5,1.9-8.3,3-12.8c1.1-4.5,2.4-10.2,2.9-12.6c0.9-4.2,1.7-7.4,5.5-23.2c0.9-3.7,2.2-9.4,3-12.6s1.7-7.4,2.2-9.4
	c3.1-13.1,4.1-17,5.2-21.8c1.5-6.2,3.9-16.4,5.9-24.8c2.9-12-0.2-17-12.3-19.9C238.5,355.6,238.4,355.5,238.1,356.1"/>
<path id="path1" class="st1" d="M-97,421v258.8h200h200V421V162.2H103H-97V421 M160.9,254.7c2.8,1.5,4.8,3.5,6.1,6.3l1,2.2v107v107
	l-0.9,1.9c-1.1,2.4-3.7,5.2-6.1,6.6l-1.9,1.1H51.4H-56.4l-1.8-0.9c-2.5-1.2-5-3.8-6.3-6.5l-1.1-2.2V370.4V263.6l0.9-2.3
	c1.2-3,4.8-6.4,7.6-7.3c1.6-0.5,16.3-0.6,108.9-0.5l107,0.1L160.9,254.7 M50.3,279.3l-89.3,0.1V357v77.6h90.4h90.4V357v-77.6
	l-1.1-0.1C140.1,279.3,99.4,279.2,50.3,279.3 M195.3,293.2c7.4,1.2,15.2,2.5,17.3,2.8c12.6,2.1,14.6,2.9,17.6,7.2
	c2.7,3.9,2.9,6.3,1.2,15.4c-0.5,2.5-1.3,7.8-1.8,11.6c-0.6,3.9-1.3,8.3-1.6,9.8c-0.3,1.5-1,5.5-1.6,8.8c-0.6,3.3-1.2,7-1.4,8.2
	s-0.9,5.3-1.4,9c-0.6,3.7-2.7,16.3-4.6,28c-2,11.7-6.2,36.7-9.4,55.6c-3.2,18.9-6.1,35.8-6.4,37.6c-0.3,1.8-1.1,6.2-1.6,9.8
	c-3.8,24.5-5,27.7-11.2,30.5c-3.5,1.6-11,0.7-42.2-4.8c-2.5-0.5-5.8-1-7.3-1.2c-3.7-0.5-15.8-2.5-22.7-3.8c-4.8-0.9-21.1-3.5-36.4-6
	c-1.9-0.3-9.3-1.6-16.6-2.8c-7.3-1.2-14.8-2.5-16.8-2.8c-2-0.3-6.1-1-9.2-1.6c-3.1-0.5-7.2-1.3-9.2-1.6c-12.8-2.2-15.6-2.7-16-3
	c-0.2-0.2,28.6-0.4,70.8-0.4c74.6,0,74.2,0,79-1.8c10.7-4.1,15.6-12,16.3-26.6c0.3-6.2,1.1-12.9,2.4-20c0.2-1.2,0.8-4.5,1.2-7.4
	c0.5-2.9,1.1-6.5,1.4-8.2c0.3-1.7,0.8-4.7,1.2-6.8c0.7-4.5,2.1-12.8,2.7-16.2c0.2-1.3,0.7-3.9,0.9-5.8s0.9-5.6,1.4-8.2
	c1.1-6.1,2.3-13.3,2.8-16.4c0.2-1.3,0.7-4.6,1.2-7.2c0.4-2.6,1.4-8.7,2.2-13.4c0.8-4.7,1.6-9.6,1.8-10.8s1-6.1,1.8-10.8
	c0.8-4.7,1.8-10.5,2.2-12.9c1.1-6,1.1-6-5.8-6.9c-1.1-0.1-3.4-0.5-5.2-0.8c-1.8-0.3-5-0.9-7.1-1.2c-5.5-0.9-5.1,0.2-5.1-14.6
	c0-12.2,0-12.3,0.8-12.3C181.5,291,187.9,292,195.3,293.2 M55.6,304.7c25.2,3.8,31.8,37.9,11.9,60.8c-2.5,2.9-3.1,4.6-2.6,7.4
	c0.6,3.6,1.9,4.4,13.2,9.6c13.2,6,19.8,10.7,23.2,16.6c1.7,2.8,2,5.2,2,14l0,8l-51.9,0.1l-51.9,0.1l0.1-9.5
	c0.1-9.4,0.1-9.5,1.2-11.9c2.9-6.1,12-12.5,27.2-19c10.9-4.7,12.7-8.7,6.8-15.8c-15.8-19-15.2-46,1.3-56.5
	C41.5,305.2,48.8,303.7,55.6,304.7 M244.9,356.6c16.7,4,20.1,4.9,20.5,5.5c0.1,0.2,0.7,0.6,1.3,1c2.4,1.5,5.1,7.1,5.1,10.5
	c0,1.2-1.4,7.8-3,13.6c-0.3,1.1-0.9,3.6-1.4,5.6c-0.8,3.3-2.3,9.9-4.5,19c-1.7,7.3-2,8.3-3,12.6c-0.6,2.4-1.6,7.1-2.4,10.4
	c-1.4,6.4-3.3,14.4-4.6,19.6c-0.4,1.8-1.2,4.9-1.6,7c-0.4,2.1-1,4.4-1.2,5.2c-0.2,0.8-1,4.2-1.8,7.6s-2,8.4-2.6,11
	s-1.7,7.2-2.4,10.2c-0.7,3-1.5,6.5-1.8,7.8c-1,4-2.9,12.4-4.7,20c-0.9,4-3.2,13.4-5,21c-4.8,19.6-4.6,18.7-7.2,30.6
	c-1.7,7.5-3.5,10.5-8,12.6c-4.1,2-3.8,2-30.5-4.3c-6.1-1.4-12.2-2.8-13.6-3.2s-4.2-0.9-6.2-1.4c-2-0.5-4.7-1.1-6-1.4
	c-2.6-0.5-27.8-6.5-37.4-8.8c-3.2-0.8-7.9-1.9-10.4-2.4c-2.5-0.6-6-1.4-7.8-1.8c-1.8-0.4-7.5-1.8-12.8-3c-5.3-1.2-12.8-3-16.8-4
	c-13.1-3.2-17.1-4.1-22.6-5.4c-32.8-7.3-48.7-11.4-51-13c-6-4.1-6.8-8.2-3.8-21.3c2-8.7,1.3-8,6.8-7c14,2.5,16.3,2.9,34.8,5.8
	c3.6,0.6,6.8,1.1,15.8,2.8c3.1,0.6,6.7,1.2,8,1.4c2.5,0.4,13.5,2.1,18.8,3c7.7,1.3,18.3,3.1,21.2,3.6c1.8,0.3,4.8,0.8,6.8,1.2
	c2,0.3,5.8,1,8.4,1.4c2.6,0.5,9.7,1.6,15.6,2.6s13.5,2.2,16.8,2.8c8.9,1.5,12.6,2.1,18.6,3c3,0.5,7.3,1.2,9.5,1.6
	c8.6,1.6,14.6,0.3,21.5-4.7c1.8-1.3,2.2-1.4,4.4-1.3l2.4,0.1l1.3-5c0.7-2.8,2.1-8.6,3.1-13c1-4.4,2.2-9.4,2.6-11.2
	c1.7-7.2,4.4-18.9,4.8-20.6c0.5-2.3,4.5-19.3,5.8-24.8c0.6-2.3,1.3-5.6,1.7-7.4c0.4-1.8,1.4-5.8,2.1-9s2.1-9,3-13
	c0.9-4,1.9-8.3,2.2-9.6c1-4,2.5-10.9,4-17.6c0.8-3.5,2.2-9.4,3.1-13c1.9-7.7,2.2-7.1-3.5-8.2c-2.1-0.4-4-1-4.1-1.2
	c-0.2-0.6,3.3-22,3.9-23.7C238,355.1,238.3,355.1,244.9,356.6"/>
<path id="path2" class="st2" d="M-61.2,256.8l-1.2,1l1.3-0.9c0.7-0.5,1.3-0.9,1.3-1C-59.8,255.7-60,255.8-61.2,256.8 M165.9,260.2
	c0.5,0.9,0.9,1.5,1,1.4c0.2-0.2-1-2.5-1.5-2.8C165.2,258.7,165.5,259.3,165.9,260.2 M-64,260.2c-0.4,0.7-0.6,1.3-0.5,1.4
	c0.1,0.1,0.5-0.5,0.8-1.2C-62.9,258.7-63.1,258.5-64,260.2 M-65.2,269.8c0,3.2,0.1,4.5,0.1,2.9c0.1-1.6,0.1-4.2,0-5.8
	C-65.2,265.3-65.2,266.6-65.2,269.8 M-39.5,278.9c-0.4,0.4-0.3,155.6,0,155.9c0.2,0.1,0.3-34.9,0.2-77.8l-0.1-78l90.3-0.1l90.3-0.1
	L51,278.7C1.3,278.6-39.4,278.7-39.5,278.9 M180.9,291.3c-0.7,0.7-0.3,24.8,0.4,25.4c0.6,0.5,0.6,0.5,0.2-0.1
	c-0.4-0.5-0.5-3.5-0.4-13.1c0.1-6.8,0.1-12.4,0.1-12.4C181.1,291,181,291.1,180.9,291.3 M31.6,312.7c-1.5,1.5-3.3,3.9-2.3,2.9
	c1.1-1,4.2-4.6,4.1-4.6C33.2,311,32.4,311.8,31.6,312.7 M70.6,312.7c1.7,1.8,2,2.1,2,1.8c0-0.1-0.9-0.9-1.9-1.9l-1.9-1.8L70.6,312.7
	 M-65.2,345c0,9.8,0.1,13.8,0.1,8.9c0.1-4.9,0.1-12.9,0-17.8C-65.2,331.2-65.2,335.2-65.2,345 M23.5,332.8c0,1.3,0.1,1.8,0.2,1.1
	c0.1-0.7,0.1-1.8,0-2.4C23.6,330.9,23.5,331.5,23.5,332.8 M78.7,334.2c0,1.6,0.1,2.3,0.2,1.5c0.1-0.8,0.1-2.2,0-3
	C78.8,331.9,78.7,332.5,78.7,334.2 M23.9,339c0,0.8,0.1,1.1,0.2,0.7c0.1-0.4,0.1-1,0-1.4C24,337.9,23.9,338.2,23.9,339 M66.6,365.7
	l-1.4,1.5l1.5-1.4c0.8-0.8,1.5-1.4,1.5-1.5C68.2,364,67.9,364.3,66.6,365.7 M269,366.4c0.7,1.3,1.2,2,1.2,1.6c0-0.2-0.4-0.9-0.8-1.4
	C268.8,365.9,268.7,365.9,269,366.4 M64.3,371.4c0,1.2,0.1,1.7,0.2,1.1c0.1-0.6,0.1-1.6,0-2.2C64.4,369.7,64.3,370.2,64.3,371.4
	 M36.2,376.7c-0.6,0.8-0.7,1.1-0.3,0.7c0.7-0.5,1.6-2,1.3-2C37.2,375.4,36.7,376,36.2,376.7 M242.7,383.8c0,0.8,0.1,1.1,0.2,0.7
	c0.1-0.4,0.1-1,0-1.4C242.8,382.7,242.7,383,242.7,383.8 M95,392.7c0,0.1,0.6,0.7,1.3,1.3l1.3,1.2l-1.2-1.3
	C95.3,392.7,95,392.4,95,392.7 M4.4,395.5l-1.6,1.7l1.7-1.6c1.6-1.5,1.9-1.8,1.6-1.8C6,393.8,5.3,394.6,4.4,395.5 M102.7,408
	c0,2,0.1,2.8,0.1,1.9c0.1-0.9,0.1-2.5,0-3.6C102.8,405.3,102.7,406,102.7,408 M-0.4,412.6c0,3,0.1,4.2,0.1,2.7
	c0.1-1.5,0.1-3.9,0-5.4C-0.4,408.4-0.4,409.6-0.4,412.6 M102.7,417.6c0,2,0.1,2.8,0.1,1.9c0.1-0.9,0.1-2.5,0-3.6
	C102.8,414.9,102.7,415.6,102.7,417.6 M-65.2,445.4c0,17,0,24,0.1,15.5c0.1-8.5,0.1-22.5,0-31C-65.2,421.4-65.2,428.3-65.2,445.4
	 M251.3,459.4c-0.1,0.7-0.2,1.4-0.1,1.4c0.1,0.1,0.3-0.4,0.4-1.1c0.2-0.7,0.2-1.3,0.1-1.4C251.6,458.3,251.4,458.7,251.3,459.4
	 M180.7,466.8c0,0.9,0.1,1.2,0.2,0.7c0.1-0.5,0.1-1.2,0-1.6C180.8,465.5,180.7,465.9,180.7,466.8 M180.3,475.6
	c0,0.9,0.1,1.2,0.2,0.7c0.1-0.5,0.1-1.2,0-1.6C180.4,474.3,180.3,474.7,180.3,475.6 M163.6,483.1l-1.6,1.7l1.7-1.6
	c0.9-0.9,1.7-1.6,1.7-1.7C165.4,481.2,165.1,481.5,163.6,483.1 M-54.1,486.9c0.6,0.1,1.5,0.1,2,0c0.5-0.1,0-0.2-1.1-0.2
	C-54.3,486.7-54.7,486.8-54.1,486.9 M99.5,486.9c3.3,0.1,8.5,0.1,11.6,0c3.1-0.1,0.5-0.1-5.9-0.1C98.8,486.8,96.3,486.8,99.5,486.9
	 M15.3,499.7c-0.1,0.2,1.6,0.3,3.9,0.2c5.9-0.2,6.4-0.4,1-0.4C17.6,499.4,15.4,499.5,15.3,499.7 M58.5,499.7c18.1,0.1,47.8,0.1,66,0
	c18.2-0.1,3.4-0.1-32.9-0.1S40.4,499.6,58.5,499.7 M193.1,525.2l-1.1,1l1.3-0.9c0.7-0.5,1.3-1,1.3-1
	C194.6,524,194.2,524.3,193.1,525.2 M182.3,540.9c0.4,0.1,1,0.1,1.4,0c0.4-0.1,0.1-0.2-0.7-0.2S181.9,540.8,182.3,540.9
	 M113.4,565.9c0.1,0.1,0.7,0.3,1.4,0.4c0.9,0.2,1,0.2,0.6-0.1C114.9,565.8,113,565.6,113.4,565.9 M218.2,585.8
	c-1.8,1.5-1.4,1.5,0.6,0c0.8-0.7,1.4-1.2,1.2-1.2C219.8,584.6,219,585.2,218.2,585.8"/>
<path id="path3" class="st3" d="M0.1,253.7c28.7,0.1,75.5,0.1,104,0c28.5-0.1,5.1-0.1-52.1-0.1S-28.5,253.6,0.1,253.7 M102.7,412.8
	c0,0.9,0.1,1.2,0.2,0.7c0.1-0.5,0.1-1.2,0-1.6C102.8,411.5,102.7,411.9,102.7,412.8 M-0.5,419.4c0,1,0.1,1.4,0.2,0.9
	c0.1-0.5,0.1-1.3,0-1.8C-0.4,418-0.5,418.4-0.5,419.4 M6.1,434.9c24.7,0.1,65.1,0.1,89.8,0c24.7-0.1,4.5-0.1-44.9-0.1
	S-18.6,434.8,6.1,434.9 M180.3,471.8c0,1.4,0.1,2,0.2,1.3c0.1-0.7,0.1-1.9,0-2.6C180.4,469.8,180.3,470.4,180.3,471.8 M185.1,540.9
	c0.6,0.1,1.5,0.1,2,0c0.5-0.1,0-0.2-1.1-0.2S184.5,540.8,185.1,540.9 M210.5,588.5c0.5,0.1,1.3,0.1,1.8,0c0.5-0.1,0.1-0.2-0.9-0.2
	C210.4,588.3,210,588.4,210.5,588.5"/>
<path id="path4" class="st4" d="M-54.5,253.7c0.6,0.1,1.5,0.1,2,0c0.5-0.1,0-0.2-1.1-0.2C-54.7,253.5-55.1,253.6-54.5,253.7
	 M168,370.2c0,58.4,0,82.3,0.1,53.1c0.1-29.2,0.1-77,0-106.2C168,287.9,168,311.8,168,370.2 M-65.6,370.8c0,56.8,0,79.9,0.1,51.5
	s0.1-74.9,0-103.2C-65.6,290.8-65.6,314-65.6,370.8 M-39.1,279.3c-0.4,0.4-0.3,155.2,0,155.5c0.2,0.1,0.3-34.8,0.2-77.6l-0.1-77.8
	l89.3-0.1l89.3-0.1l-89.2-0.1C1.3,279-39,279.1-39.1,279.3 M141.8,357.3c-0.1,42.7-0.1,77.5,0.1,77.4c0.2-0.2,0.3-35.1,0.2-77.7
	l-0.1-77.4L141.8,357.3 M180.4,303.4c0,6.9,0.1,9.8,0.1,6.3c0.1-3.5,0.1-9.1,0-12.6C180.4,293.6,180.4,296.5,180.4,303.4
	 M228.2,301.2c0.7,0.8,1.4,1.4,1.6,1.4c0.1,0-0.4-0.6-1.2-1.4c-0.7-0.8-1.4-1.4-1.6-1.4C226.9,299.8,227.5,300.4,228.2,301.2
	 M50.5,304.5c0.5,0.1,1.3,0.1,1.8,0c0.5-0.1,0.1-0.2-0.9-0.2C50.4,304.3,50,304.4,50.5,304.5 M31.6,312.3l-2,2.1l2.1-2
	c1.2-1.1,2.1-2,2.1-2.1C33.8,310,33.4,310.3,31.6,312.3 M68.6,310.3c0,0.1,0.6,0.7,1.3,1.3l1.3,1.2l-1.2-1.3
	C68.9,310.3,68.6,310,68.6,310.3 M271.5,373.8c0,1.2,0.1,1.7,0.2,1.1c0.1-0.6,0.1-1.6,0-2.2C271.6,372.1,271.5,372.6,271.5,373.8
	 M103.1,406.6c0,1,0.1,1.4,0.2,0.9c0.1-0.5,0.1-1.3,0-1.8C103.2,405.2,103.1,405.6,103.1,406.6 M103.1,419.4c0,1,0.1,1.4,0.2,0.9
	c0.1-0.5,0.1-1.3,0-1.8C103.2,418,103.1,418.4,103.1,419.4 M250.2,465.1c0,0.4-0.1,1-0.3,1.4c-0.2,0.7-0.2,0.7,0.2,0
	c0.3-0.4,0.4-1,0.3-1.4C250.3,464.5,250.3,464.5,250.2,465.1 M180.3,467.8c0,1,0.1,1.4,0.2,0.9c0.1-0.5,0.1-1.3,0-1.8
	C180.4,466.4,180.3,466.8,180.3,467.8 M216.5,495c-0.1,0.7-0.2,1.4-0.1,1.4c0.1,0.1,0.3-0.4,0.4-1.1c0.2-0.7,0.2-1.3,0.1-1.4
	C216.8,493.9,216.6,494.3,216.5,495"/>
</svg>
