<?xml version="1.0" encoding="utf-8"?>
<!-- Generator: Adobe Illustrator 19.0.0, SVG Export Plug-In . SVG Version: 6.00 Build 0)  -->
<svg version="1.1" id="svg" xmlns="http://www.w3.org/2000/svg" xmlns:xlink="http://www.w3.org/1999/xlink" x="0px" y="0px"
	 viewBox="-97 162.2 400 517.7" style="enable-background:new -97 162.2 400 517.7;" xml:space="preserve">
<style type="text/css">
	.st0{fill:#C4CBCB;}
	.st1{display:none;fill:#FBFBFC;}
	.st2{fill:#DCDCDE;}
	.st3{fill:#E2E4E4;}
	.st4{fill:#ECECEC;}
</style>
<path id="path0" class="st0" d="M7.7,255c-2.1,0.5-3.7,1.7-4.8,3.7L2,260.4v62.4v62.4l1,1.7c3.2,5.6,11.8,4.5,13.6-1.8
	c0.3-1,0.4-19.9,0.4-58.2l0-56.7h78.9h78.9l0.3,1.7c0.1,0.9,0.2,8.3,0,16.5c-0.6,35.6,1,42.5,12,51.6c8.7,7.3,13.7,8.2,44.3,8.2
	l22.7,0l0,101.7c0,112.5,0.2,104.5-2.6,110.2c-2.5,5.1-7.2,9-13,10.9c-2.5,0.8-3.4,0.9-30.5,1.1l-27.9,0.2l-1.7,1.2
	c-5.1,3.6-4.2,10.4,1.6,13c2.8,1.3,55.3,1,60.2-0.3c10.2-2.7,19.3-9.3,23.6-17.3c0.4-0.8,0.9-1.5,1-1.6c0.7-0.5,3.3-8.6,3.8-11.6
	c0.5-2.9,0.5-20.6,0.5-110.2l-0.1-106.8l-0.9-1.7c-0.6-1.1-6.4-7.2-16.6-17.2c-8.6-8.5-26.2-25.9-39.1-38.7
	c-24.3-24.1-24.5-24.3-26.8-25.6C184.2,254.7,11.2,254.2,7.7,255 M196.8,287.6c18.5,18,45,44.7,44.7,45c-0.8,0.8-36,0.2-38.3-0.6
	c-6.5-2.5-10.5-6.7-12.2-13c-0.6-2.3-1.2-35.3-0.7-36.7C190.7,281.6,190.1,281.1,196.8,287.6 M51,321.1c-4.9,1.6-6.3,8.6-2.4,12.3
	c2.6,2.4,1,2.4,50,2.4h44.8l2.1-0.9c6.3-2.8,5.8-11.6-0.8-13.8C142.8,320.4,53,320.5,51,321.1 M51.5,352.6c-6,1.7-7,10.8-1.6,13.7
	l1.7,0.9h24.6c27.6,0,26.4,0.1,28.5-2.9c2.8-4,1.3-9.3-3.1-11.3C99.8,352.1,54.2,351.8,51.5,352.6 M-35.3,401.4
	c-13,2.2-23.5,11.9-27,25l-0.9,3.2v64.6c0,53.1,0.1,65,0.5,66.6c3.7,13.6,12.7,22.6,25.9,25.7c4.8,1.1,176.6,1.1,181.3,0
	c11.9-2.9,21.3-11.5,24.7-22.7c1.7-5.6,1.8-6.7,1.6-72.2l-0.1-62.4l-0.9-3c-3.6-11.7-11.2-19.6-22.9-23.7l-3.7-1.3L55,401.1
	C4.7,401.1-34.1,401.2-35.3,401.4 M141.2,416.7c6.5,1.4,11.5,5.9,13.7,12.3c1.1,3.3,1.4,108.4,0.3,108.4c-0.9,0-8.7-7.9-32.9-33.2
	c-15.1-15.8-15.4-16-18.6-16c-2.5,0-4.8,1.5-10.3,6.7c-7.5,7.2-11,10.5-13.3,12.7c-1.1,1-3.3,3.1-4.8,4.5c-1.5,1.4-4.5,4.2-6.5,6.2
	c-2,1.9-3.9,3.5-4.2,3.5c-0.4,0-5.8-6.5-14-17c-1-1.3-2.3-3-2.9-3.6s-3.3-4.2-6.2-7.8c-2.9-3.6-5.5-6.9-5.8-7.2
	c-0.3-0.3-1.9-2.3-3.5-4.4c-1.6-2.1-3.2-4-3.5-4.4c-0.3-0.3-2.7-3.4-5.4-6.8c-11.5-14.6-12.8-14.7-23.6-1.1c-3.4,4.2-7.3,9.2-8.7,11
	c-1.4,1.8-6.5,8.1-11.2,14c-4.7,5.9-10.5,13.1-12.8,16c-2.3,2.9-4.7,5.8-5.2,6.6c-0.5,0.7-2.3,3-3.9,5c-1.6,2-3.5,4.3-4.2,5.1
	c-0.7,0.8-1.4,1.5-1.6,1.5c-0.5,0-0.4-94.5,0.1-97.4c1.3-7,6.3-12.4,13.2-14.2C-31.1,416,137,415.8,141.2,416.7 M103.8,433.6
	c-1,0.3-2.3,0.7-2.8,0.9c-14.3,4.4-18.7,25.2-7.6,36.1c14,13.7,37.7,4,37.7-15.5C131.2,440.8,116.8,429.5,103.8,433.6 M112.6,449.1
	c6.4,4.3,2.5,14.1-4.9,12.5c-8.3-1.8-6.9-13.4,1.5-13.4C110.7,448.2,111.7,448.5,112.6,449.1 M12.4,481.3c0.4,0.6,1,1.3,1.3,1.6
	c0.3,0.3,1,1.2,1.6,2c0.6,0.8,1.4,1.8,1.8,2.3c0.6,0.7,5.1,6.3,9.1,11.4c2.7,3.4,9.8,12.4,14.2,18c2.6,3.4,5,6.3,5.2,6.6
	c0.4,0.4,6.4,7.9,21.2,26.6c4.1,5.2,8.6,10.8,10,12.6c8.2,10.3,7.6,9.2,5.5,9.5c-2.4,0.4-111.6,0.3-114.6-0.1
	c-9.2-1.2-18.7-13.2-14.9-18.9c0.7-1,8.4-10.8,10.6-13.5c0.8-1,3.2-4,5.3-6.6c2.1-2.6,3.9-4.9,4-5c0.1-0.1,1.1-1.4,2.2-2.8
	c1.1-1.4,2.1-2.7,2.2-2.8s2.3-2.8,4.8-6s7.5-9.5,11.1-14c3.6-4.5,9.1-11.3,12.1-15.1C10.9,479.8,11.3,479.5,12.4,481.3 M105.6,510.5
	c0.9,0.8,4,3.6,6.8,6.1c2.8,2.6,9.6,9.2,15,14.8c5.4,5.6,12.4,12.8,15.6,16.1c3.2,3.3,6,6.2,6.2,6.4c0.2,0.3,1.5,1.6,2.7,3
	c2.8,3,2.8,3.6,0.2,7.3c-5.1,7.2-7.9,8-31.2,7.9c-18.4,0-16.9,0.3-20.8-4.6c-1.6-2-3.6-4.6-4.5-5.7c-2.5-3.1-2.7-3.4-5.2-6.6
	c-1.3-1.6-5.2-6.6-8.7-11c-7.4-9.3-7.2-8.6-4-11.6c1.3-1.3,3.1-2.9,3.9-3.7c2.6-2.4,14.5-13.8,17.8-16.9
	C103.3,508.5,103.5,508.5,105.6,510.5"/>
<path id="path1" class="st1" d="M-97,421v258.8h200h200V421V162.2H103H-97V421 M186.1,255.2c1.1,0.5,5.6,4.7,13,12
	c6.2,6.1,19.4,19.2,29.3,28.9c34.4,33.9,39.5,39.1,40.3,40.7l0.9,1.6v108.4c0,105.5,0,108.5-0.8,111.4c-0.7,2.9-2.4,7.4-3,8.2
	c-0.2,0.2-0.4,0.8-0.6,1.3c-2.1,6.9-13.8,16.1-24.2,18.9c-4,1.1-56.8,1.7-60.5,0.7c-6.5-1.7-7.7-10.4-2.1-14.3l1.5-1.1l28-0.2
	c27.4-0.2,28.1-0.2,30.4-1.1c7.8-2.8,12.6-8,14.6-16c0.8-3,0.8-5.3,0.8-104.5V348.7l-24.5-0.2l-24.5-0.2l-3.8-1
	c-13.3-3.6-21.4-11.4-25.1-23.9l-1.1-3.8l-0.1-24.5l-0.1-24.5H96H17.4l-0.1,57.6l-0.1,57.6l-1.2,1.7c-3.8,5.5-12.5,4.3-14.2-2
	c-0.3-1-0.4-21.6-0.3-63.5L1.6,260l0.9-1.7c1-2,2.6-3.2,4.8-3.7C10.9,253.8,184.2,254.3,186.1,255.2 M190.8,284.3
	c-0.1,1-0.2,8.9-0.1,17.6l0.1,15.8l1.1,2.8c2.5,6.2,7.2,10.2,13.7,11.7c2.7,0.6,35.4,0.8,35.4,0.2c0-0.2-6.6-6.9-14.7-14.9
	c-8.1-8-19.3-19.1-25-24.7l-10.3-10.2L190.8,284.3 M147,321.6c5.2,3.7,4.1,12.1-2,14.1c-2.1,0.7-92.1,0.7-93.9,0
	c-6.8-2.5-7-12.7-0.3-15c0.8-0.3,16-0.4,47.9-0.4l46.7,0.1L147,321.6 M102.4,352.8c6.2,3.2,5.4,12.6-1.3,14.6c-1,0.3-9,0.4-25.8,0.3
	l-24.3-0.1l-1.7-1.2c-5-3.5-4.6-10.8,0.7-13.6l1.9-1l24.4,0.1C99.9,352,100.9,352,102.4,352.8 M144,401.2
	c12.8,3.1,22.1,11.9,26.3,24.8l0.9,2.8l0.1,63.8c0.1,45.2,0,64.6-0.3,66.4c-2.5,15-14.6,26.6-29.4,28.4c-2,0.3-34.8,0.4-90.2,0.3
	l-87-0.1l-2.9-0.9c-12.3-3.9-21.1-12.8-24.3-24.9c-0.8-3.1-1.4-126.8-0.6-132c2.2-14,11.6-24.4,25.7-28.5c1.3-0.4,21.9-0.5,86.1-0.7
	C140.2,400.3,140.5,400.3,144,401.2 M-34.6,417.3c-4.9,1.5-8.3,4.2-10.6,8.3c-2.7,4.8-2.6,3-2.5,55.2l0.1,47.1l3.8-4.8
	c2.1-2.6,4.2-5.3,4.6-5.9c0.4-0.6,6.1-7.7,12.6-15.8c6.5-8.1,12.2-15.2,12.6-15.8c0.9-1.2,10.2-12.7,10.8-13.4
	c0.2-0.2,1.8-2.3,3.6-4.6c5.4-7,7.2-8.4,10.6-8.4c4.1,0,4.4,0.4,17,16.2c3.3,4.2,8.2,10.4,11,13.9c10.4,13.1,24.5,30.9,25,31.4
	c0.4,0.5,1.7-0.5,7.7-6.2c3.9-3.7,8.6-8.1,10.3-9.8c1.8-1.7,5-4.7,7.2-6.8c8.2-7.8,9.1-8.6,10.7-9.5c4.1-2.2,6.9-1,13,5.2
	c4.5,4.7,11.6,12,15.6,16.1c1.5,1.6,6.7,6.9,11.5,11.9c4.8,5,8.9,9.2,9,9.4c0.1,0.1,1.6,1.6,3.3,3.3l3.1,3l-0.1-53.2l-0.1-53.2
	l-0.9-2.2c-2.5-6.5-6-9.8-12.5-11.6C138,416.2-30.9,416.2-34.6,417.3 M115.2,433.2c16,4.2,21.9,25.4,10.4,37.2
	c-14.4,14.6-39,5-39-15.3C86.6,440.1,100.6,429.4,115.2,433.2 M106.3,449.2c-6,3-3.8,12.2,2.9,12.2c3.1,0,6.7-3.5,6.7-6.5
	C115.8,450.6,110.2,447.3,106.3,449.2 M5.5,487.3c-2.9,3.7-6.5,8.2-8,10.1c-2.1,2.6-24.5,30.6-27.2,34c-0.3,0.3-1.6,2-3,3.8
	c-16,20.1-14.8,18.4-14.6,21.2c0.6,6.9,7.4,13.8,14.8,15c3.6,0.6,115.5,0.6,115.5,0c0-0.4-1.8-3-2.6-3.8c-0.2-0.2-2.8-3.4-5.6-7
	c-2.8-3.6-5.5-7-5.8-7.4c-1.2-1.4-13.3-16.7-15.3-19.4c-1.1-1.4-2.1-2.7-2.2-2.8c-0.1-0.1-0.8-1-1.6-2s-1.5-1.9-1.6-2
	s-2.1-2.5-4.4-5.4c-2.3-2.9-4.6-5.8-5.3-6.6c-1.1-1.4-13.4-16.9-15.5-19.5c-6.7-8.5-11.7-14.7-12-14.7
	C10.9,480.7,8.4,483.6,5.5,487.3 M101.2,511.3c-1.1,1-3.6,3.4-5.6,5.3c-8.3,7.9-16.9,16-18.3,17.2c-2,1.8-1.9,2.2,3.6,8.6
	c0.4,0.4,1.3,1.6,2.1,2.6c5.1,6.6,19.8,25,20.8,26c0.8,0.8,32.2,1.1,36.4,0.4c6.3-1.1,14.5-8.2,13.4-11.6
	c-0.8-2.4-47.8-49.6-50.1-50.2C103.3,509.5,102.3,510.2,101.2,511.3"/>
<path id="path2" class="st2" d="M17.2,326.6c0,31.1,0,43.9,0.1,28.3c0.1-15.6,0.1-41,0-56.6C17.2,282.7,17.2,295.5,17.2,326.6
	 M213.2,281.8c5.5,5.5,10.1,10,10.2,10c0.1,0-4.3-4.5-9.8-10c-5.5-5.5-10.1-10-10.2-10C203.3,271.8,207.7,276.3,213.2,281.8
	 M175.2,278.6c0,3.6,0.1,5.1,0.1,3.3c0.1-1.8,0.1-4.8,0-6.6C175.2,273.5,175.2,275,175.2,278.6 M190.4,298.2c0,8.9,0.1,12.6,0.1,8.1
	c0.1-4.5,0.1-11.7,0-16.2C190.4,285.6,190.4,289.3,190.4,298.2 M208.6,299.6c4.5,4.5,8.3,8.2,8.4,8.2c0.1,0-3.5-3.7-8-8.2
	s-8.3-8.2-8.4-8.2C200.5,291.4,204.1,295.1,208.6,299.6 M223.8,292.3c0,0.1,0.6,0.7,1.3,1.3l1.3,1.2l-1.2-1.3
	C224.1,292.3,223.8,292,223.8,292.3 M175.2,312.6c0,2.8,0.1,3.9,0.1,2.5s0.1-3.6,0-5S175.2,309.8,175.2,312.6 M241,309.2
	c0.7,0.8,1.4,1.4,1.6,1.4c0.1,0-0.4-0.6-1.2-1.4c-0.7-0.8-1.4-1.4-1.6-1.4C239.7,307.8,240.3,308.4,241,309.2 M249,317.2
	c3.4,3.4,6.3,6.2,6.4,6.2c0.1,0-2.6-2.8-6-6.2s-6.3-6.2-6.4-6.2C242.9,311,245.6,313.8,249,317.2 M75.7,320.5
	c12.4,0.1,32.6,0.1,44.8,0s2.1-0.1-22.5-0.1S63.3,320.4,75.7,320.5 M149.9,328.2c0,1,0.1,1.4,0.2,0.9c0.1-0.5,0.1-1.3,0-1.8
	C150,326.8,149.9,327.2,149.9,328.2 M240.5,331c0.5,0.6,0.9,1.1,0.9,1.3c0,0.2-7.8,0.3-17.3,0.4l-17.3,0.1l17.2,0.1
	c18.5,0.1,18.8,0.1,16.8-1.8C239.7,330.1,239.7,330.1,240.5,331 M107.5,336.1c5.9,0.1,15.4,0.1,21.2,0c5.8-0.1,0.9-0.1-10.7-0.1
	S101.6,336,107.5,336.1 M269.6,375.8c0,19.7,0,27.7,0.1,17.9c0.1-9.8,0.1-26,0-35.8C269.6,348.1,269.6,356.1,269.6,375.8
	 M225.1,348.5c2.8,0.1,7.3,0.1,10,0c2.7-0.1,0.4-0.1-5.1-0.1C224.5,348.4,222.3,348.4,225.1,348.5 M70.7,352.1c0.4,0.1,1,0.1,1.4,0
	c0.4-0.1,0.1-0.2-0.7-0.2C70.6,351.9,70.3,352,70.7,352.1 M73.9,352.1c0.4,0.1,1,0.1,1.4,0c0.4-0.1,0.1-0.2-0.7-0.2
	C73.8,351.9,73.5,352,73.9,352.1 M77.1,352.1c0.4,0.1,1,0.1,1.4,0c0.4-0.1,0.1-0.2-0.7-0.2S76.7,352,77.1,352.1 M80.3,352.1
	c0.4,0.1,1,0.1,1.4,0c0.4-0.1,0.1-0.2-0.7-0.2S79.9,352,80.3,352.1 M83.5,352.1c0.4,0.1,1,0.1,1.4,0c0.4-0.1,0.1-0.2-0.7-0.2
	S83.1,352,83.5,352.1 M86.7,352.1c0.4,0.1,1,0.1,1.4,0c0.4-0.1,0.1-0.2-0.7-0.2C86.6,351.9,86.3,352,86.7,352.1 M89.9,352.1
	c0.4,0.1,1,0.1,1.4,0c0.4-0.1,0.1-0.2-0.7-0.2C89.8,351.9,89.5,352,89.9,352.1 M93.1,352.1c0.4,0.1,1,0.1,1.4,0
	c0.4-0.1,0.1-0.2-0.7-0.2S92.7,352,93.1,352.1 M103,353.5c0,0.1,0.6,0.7,1.3,1.3l1.3,1.2l-1.2-1.3C103.3,353.5,103,353.2,103,353.5
	 M62.9,367.7c0.9,0.1,2.5,0.1,3.4,0c0.9-0.1,0.2-0.2-1.7-0.2C62.7,367.5,62,367.6,62.9,367.7 M86.5,367.7c1.4,0.1,3.6,0.1,5,0
	s0.3-0.1-2.5-0.1S85.1,367.6,86.5,367.7 M-4.1,400.9c15.5,0.1,41.1,0.1,56.8,0c15.7-0.1,3-0.1-28.3-0.1S-19.7,400.8-4.1,400.9
	 M122.3,400.9c3.2,0.1,8.6,0.1,11.8,0c3.2-0.1,0.6-0.1-5.9-0.1C121.7,400.8,119.1,400.8,122.3,400.9 M158.2,408.3
	c0,0.1,0.6,0.7,1.3,1.3l1.3,1.2l-1.2-1.3C158.5,408.3,158.2,408,158.2,408.3 M-53.6,410.7l-2,2.1l2.1-2c1.2-1.1,2.1-2,2.1-2.1
	C-51.4,408.4-51.8,408.7-53.6,410.7 M-57.4,415c-0.5,0.7-0.8,1.2-0.7,1.2s0.6-0.5,1.1-1.2s0.8-1.2,0.7-1.2S-56.9,414.3-57.4,415
	 M-43.2,421.9l-1.6,1.7l1.7-1.6c1.6-1.5,1.9-1.8,1.6-1.8C-41.6,420.2-42.3,421-43.2,421.9 M108.1,432.9c0.7,0.1,1.8,0.1,2.4,0
	s0-0.2-1.3-0.2C107.9,432.7,107.4,432.8,108.1,432.9 M-63.6,493.8c0,33.1,0,46.7,0.1,30.1c0.1-16.6,0.1-43.6,0-60.2
	S-63.6,460.7-63.6,493.8 M155.6,485.6c0,28.6,0,40.2,0.1,25.9c0.1-14.4,0.1-37.8,0-52C155.6,445.2,155.6,457,155.6,485.6
	 M171.1,435.8c0,1,0.1,1.4,0.2,0.9c0.1-0.5,0.1-1.3,0-1.8C171.2,434.4,171.1,434.8,171.1,435.8 M123.8,438.3c0,0.1,0.6,0.7,1.3,1.3
	l1.3,1.2l-1.2-1.3C124.1,438.3,123.8,438,123.8,438.3 M86.7,455c0,1,0.1,1.4,0.2,0.9c0.1-0.5,0.1-1.3,0-1.8
	C86.8,453.6,86.7,454,86.7,455 M10.3,459.7c0.4,0.1,1,0.1,1.4,0c0.4-0.1,0.1-0.2-0.7-0.2S9.9,459.6,10.3,459.7 M16.6,462.4
	c0.7,0.8,1.4,1.4,1.6,1.4s-0.4-0.6-1.2-1.4c-0.7-0.8-1.4-1.4-1.6-1.4S15.9,461.6,16.6,462.4 M93,470.3c0,0.1,0.6,0.7,1.3,1.3
	l1.3,1.2l-1.2-1.3C93.3,470.3,93,470,93,470.3 M107.9,477.3c0.6,0.1,1.6,0.1,2.2,0c0.6-0.1,0.1-0.2-1.1-0.2S107.3,477.2,107.9,477.3
	 M-8.8,479.9c-1.8,2-2.3,2.7-2.1,2.7c0.1,0,0.9-0.8,1.7-1.8C-7.7,479-7.4,478.3-8.8,479.9 M-12.4,484.3l-1.2,1.3l1.3-1.2
	c1.2-1.1,1.5-1.4,1.2-1.4C-11.2,483-11.8,483.6-12.4,484.3 M102.7,488.1c0.4,0.1,1,0.1,1.4,0c0.4-0.1,0.1-0.2-0.7-0.2
	C102.6,487.9,102.3,488,102.7,488.1 M90.8,497.1l-3.2,3.3l3.3-3.2c1.8-1.8,3.3-3.2,3.3-3.3C94.2,493.6,93.8,494,90.8,497.1
	 M-2.6,496.6c-0.7,0.9-1.2,1.6-1.1,1.6s0.8-0.7,1.5-1.6c0.7-0.9,1.2-1.6,1.1-1.6C-1.2,495-1.9,495.7-2.6,496.6 M115.2,497
	c1.1,1.1,2.1,2,2.2,2s-0.7-0.9-1.8-2c-1.1-1.1-2.1-2-2.2-2C113.3,495,114.1,495.9,115.2,497 M82.8,504.7l-1.6,1.7l1.7-1.6
	c1.6-1.5,1.9-1.8,1.6-1.8C84.4,503,83.7,503.8,82.8,504.7 M124.8,507c1.1,1.1,2.1,2,2.2,2s-0.7-0.9-1.8-2c-1.1-1.1-2.1-2-2.2-2
	S123.7,505.9,124.8,507 M75.4,511.7l-2.6,2.7l2.8-2.6c1.5-1.4,2.9-2.6,3-2.7c0.1-0.1,0-0.1-0.2-0.1C78.1,509,76.8,510.2,75.4,511.7
	 M101.2,510.7l-1.6,1.7l1.7-1.6c1.6-1.5,1.9-1.8,1.6-1.8C102.8,509,102.1,509.8,101.2,510.7 M107.4,512.3c0,0.1,0.6,0.7,1.3,1.3
	l1.3,1.2l-1.2-1.3C107.7,512.3,107.4,512,107.4,512.3 M68.8,517.9l-2.8,2.9l2.9-2.8c2.7-2.6,3.1-3,2.8-3
	C71.6,515,70.3,516.3,68.8,517.9 M94.6,516.8c-1,1-1.7,1.8-1.6,1.8s1-0.8,2-1.8s1.7-1.8,1.6-1.8S95.6,515.8,94.6,516.8 M110.6,515.1
	c0,0.1,0.6,0.7,1.3,1.3l1.3,1.2l-1.2-1.3C110.9,515.1,110.6,514.8,110.6,515.1 M133.4,515.9c0,0.1,1.4,1.5,3.1,3.1l3.1,3l-3-3.1
	C133.8,516,133.4,515.6,133.4,515.9 M-40,518.9c-0.6,0.8-0.9,1.3-0.7,1.2c0.5-0.3,2.2-2.7,2-2.7C-38.8,517.4-39.4,518.1-40,518.9
	 M118.8,523.1c2.4,2.5,4.8,4.8,5.4,5.3c0.6,0.4-1.3-1.6-4.2-4.5c-2.9-2.9-5.3-5.3-5.4-5.3C114.5,518.6,116.4,520.6,118.8,523.1
	 M87.4,523.6c-1,1-1.7,1.8-1.6,1.8c0.1,0,1-0.8,2-1.8c1-1,1.7-1.8,1.6-1.8S88.4,522.6,87.4,523.6 M146.4,529.4
	c1.3,1.3,2.5,2.4,2.6,2.4s-0.9-1.1-2.2-2.4c-1.3-1.3-2.5-2.4-2.6-2.4S145.1,528.1,146.4,529.4 M78.8,531.9l-1.6,1.7l1.7-1.6
	c1.6-1.5,1.9-1.8,1.6-1.8C80.4,530.2,79.7,531,78.8,531.9 M151.2,534.2c1.1,1.1,2.1,2,2.2,2s-0.7-0.9-1.8-2c-1.1-1.1-2.1-2-2.2-2
	C149.3,532.2,150.1,533.1,151.2,534.2 M131.4,535.9c0,0.1,1.4,1.5,3.1,3.1l3.1,3l-3-3.1C131.8,536,131.4,535.6,131.4,535.9
	 M-36.4,539.1c-1.8,2-2.3,2.7-2.1,2.7c0.1,0,0.9-0.8,1.7-1.8C-35.3,538.2-35,537.5-36.4,539.1 M61.4,543.4c0.7,0.9,1.5,1.7,1.7,1.9
	c0.3,0.2-0.2-0.6-1.1-1.6c-0.8-1-1.6-1.9-1.7-1.9C60.2,541.8,60.7,542.5,61.4,543.4 M144.6,549.5c2.3,2.4,4.2,4.3,4.3,4.3
	c0.3,0-0.2-0.5-4.2-4.4l-4.3-4.2L144.6,549.5 M247.8,565.2l-1.4,1.6l1.6-1.5c0.9-0.8,1.5-1.6,1.4-1.6
	C249.3,563.6,248.6,564.3,247.8,565.2 M-43,566.4c0.7,0.8,1.4,1.4,1.6,1.4s-0.4-0.6-1.2-1.4c-0.7-0.8-1.4-1.4-1.6-1.4
	C-44.3,565-43.7,565.6-43,566.4 M-2.5,572.1c15.6,0.1,41,0.1,56.4,0c15.4-0.1,2.7-0.1-28.3-0.1S-18.1,572-2.5,572.1 M108.7,572.1
	c2.2,0.1,5.6,0.1,7.6,0c2-0.1,0.3-0.1-3.9-0.1C108.2,572,106.6,572,108.7,572.1 M131.5,572.1c1.3,0.1,3.3,0.1,4.4,0
	c1.1-0.1,0.1-0.1-2.3-0.1C131.2,571.9,130.2,572,131.5,572.1 M195.5,572.1c6.5,0.1,17.3,0.1,23.8,0c6.5-0.1,1.2-0.1-11.9-0.1
	S189,572,195.5,572.1 M257.2,577.5l-1.2,1.3l1.3-1.2c0.7-0.6,1.3-1.2,1.3-1.3C258.6,576,258.3,576.3,257.2,577.5 M175.1,579.8
	c0,1,0.1,1.4,0.2,0.9c0.1-0.5,0.1-1.3,0-1.8C175.2,578.4,175.1,578.8,175.1,579.8 M254.2,579.8c-1.4,1.2-1.4,1.2-0.1,0.4
	c0.7-0.5,1.4-1,1.5-1.2C256,578.4,255.7,578.5,254.2,579.8"/>
<path id="path3" class="st3" d="M52.9,254.5c23.8,0.1,62.7,0.1,86.4,0s4.2-0.1-43.3-0.1S29.1,254.4,52.9,254.5 M191.6,260.2
	c1.8,1.8,3.3,3.2,3.4,3.2c0.1,0-1.2-1.4-3-3.2c-1.8-1.8-3.3-3.2-3.4-3.2C188.5,257,189.9,258.4,191.6,260.2 M1.6,324.6
	c0,32.5,0,45.7,0.1,29.5c0.1-16.2,0.1-42.8,0-59C1.6,278.9,1.6,292.1,1.6,324.6 M230.2,298.3c0,0.1,0.6,0.7,1.3,1.3l1.3,1.2
	l-1.2-1.3C230.5,298.3,230.2,298,230.2,298.3 M227.6,318.6c2.6,2.6,4.9,4.8,5,4.8c0.1,0-2-2.2-4.6-4.8c-2.6-2.6-4.9-4.8-5-4.8
	S225,316,227.6,318.6 M64.5,336.1c6,0.1,15.8,0.1,21.8,0c6-0.1,1.1-0.1-10.9-0.1C63.4,336,58.5,336,64.5,336.1 M139.9,336.1
	c0.6,0.1,1.5,0.1,2,0c0.5-0.1,0-0.2-1.1-0.2C139.7,335.9,139.3,336,139.9,336.1 M215.3,348.5c0.9,0.1,2.5,0.1,3.4,0
	c0.9-0.1,0.2-0.2-1.7-0.2S214.4,348.4,215.3,348.5 M242.9,348.5c1.8,0.1,4.7,0.1,6.4,0c1.7-0.1,0.2-0.1-3.3-0.1
	C242.5,348.4,241.1,348.4,242.9,348.5 M253.8,449.3l0.2,101.1l0.1-100.8c0.1-55.4,0-100.9-0.2-101.1
	C253.7,348.4,253.7,393.7,253.8,449.3 M56.5,352.1c1.6,0.1,4.2,0.1,5.8,0c1.6-0.1,0.3-0.1-2.9-0.1C56.2,352,54.9,352,56.5,352.1
	 M95.9,352.1c0.6,0.1,1.5,0.1,2,0c0.5-0.1,0-0.2-1.1-0.2C95.7,351.9,95.3,352,95.9,352.1 M55.3,367.7c1.2,0.1,3,0.1,4.2,0
	s0.2-0.1-2.1-0.1C55.1,367.5,54.1,367.6,55.3,367.7 M71.9,367.7c2.4,0.1,6.2,0.1,8.4,0c2.2-0.1,0.3-0.1-4.3-0.1
	C71.4,367.6,69.5,367.6,71.9,367.7 M94.9,367.7c0.7,0.1,1.9,0.1,2.6,0c0.7-0.1,0.1-0.2-1.3-0.2C94.8,367.5,94.2,367.6,94.9,367.7
	 M89.9,400.9c5,0.1,13.1,0.1,18,0c4.9-0.1,0.8-0.1-9.1-0.1C88.9,400.8,84.9,400.8,89.9,400.9 M269.6,481.4c0,38.6,0,54.4,0.1,35.1
	c0.1-19.3,0.1-50.9,0-70.2C269.6,427,269.6,442.8,269.6,481.4 M-26.1,416.5c2.8,0.1,7.3,0.1,10,0c2.7-0.1,0.4-0.1-5.1-0.1
	C-26.7,416.4-28.9,416.4-26.1,416.5 M73.9,416.5c3.7,0.1,9.7,0.1,13.4,0c3.7-0.1,0.7-0.1-6.7-0.1C73.2,416.4,70.2,416.4,73.9,416.5
	 M135.3,416.5c0.5,0.1,1.3,0.1,1.8,0c0.5-0.1,0.1-0.2-0.9-0.2C135.2,416.3,134.8,416.4,135.3,416.5 M-48.1,480.9
	c-0.1,26,0,47.3,0.2,47.3c0.3,0,0.3-32.8,0-77.6C-48,441.2-48.1,454.9-48.1,480.9 M171.2,495.6c0,32.1,0,45.3,0.1,29.3
	c0.1-16,0.1-42.3,0-58.4C171.2,450.4,171.2,463.5,171.2,495.6 M92.8,439.5l-1.2,1.3l1.3-1.2c1.2-1.1,1.5-1.4,1.2-1.4
	C94,438.2,93.4,438.8,92.8,439.5 M102.3,454.8c0,0.9,0.1,1.2,0.2,0.7c0.1-0.5,0.1-1.2,0-1.6C102.4,453.5,102.3,453.9,102.3,454.8
	 M130,512.2c0.9,0.9,1.7,1.6,1.8,1.6s-0.5-0.7-1.4-1.6c-0.9-0.9-1.7-1.6-1.8-1.6S129.1,511.3,130,512.2 M97.8,514
	c-1,1-1.7,1.8-1.6,1.8s1-0.8,2-1.8s1.7-1.8,1.6-1.8S98.8,513,97.8,514 M72.8,513.9l-1.2,1.3l1.3-1.2c1.2-1.1,1.5-1.4,1.2-1.4
	C74,512.6,73.4,513.2,72.8,513.9 M140.6,523.2c0.7,0.8,1.4,1.4,1.6,1.4s-0.4-0.6-1.2-1.4c-0.7-0.8-1.4-1.4-1.6-1.4
	S139.9,522.4,140.6,523.2 M127,531.5c0,0.1,0.6,0.7,1.3,1.3l1.3,1.2l-1.2-1.3C127.3,531.5,127,531.2,127,531.5 M138.2,543.1
	c0,0.1,0.6,0.7,1.3,1.3l1.3,1.2l-1.2-1.3C138.5,543.1,138.2,542.8,138.2,543.1 M122.1,572.1c1.4,0.1,3.6,0.1,5,0s0.3-0.1-2.5-0.1
	S120.7,572,122.1,572.1 M161,577.6c-1,1-1.7,1.8-1.6,1.8c0.1,0,1-0.8,2-1.8c1-1,1.7-1.8,1.6-1.8C162.9,575.8,162,576.6,161,577.6
	 M10.5,587.7c23.6,0.1,62.2,0.1,85.8,0s4.3-0.1-42.9-0.1S-13.1,587.6,10.5,587.7 M194.9,587.7c7.1,0.1,18.6,0.1,25.6,0
	c7-0.1,1.2-0.1-12.9-0.1C193.5,587.6,187.8,587.6,194.9,587.7"/>
<path id="path4" class="st4" d="M1.5,263.4c0,1.4,0.1,2,0.2,1.3c0.1-0.7,0.1-1.9,0-2.6C1.6,261.4,1.5,262,1.5,263.4 M56.9,270.5
	c21.6,0.1,57,0.1,78.6,0s3.9-0.1-39.3-0.1S35.3,270.4,56.9,270.5 M174.8,293.2c0,12.3,0.1,17.4,0.1,11.3c0.1-6.1,0.1-16.2,0-22.4
	C174.8,275.9,174.8,280.9,174.8,293.2 M216.2,284.4c3.6,3.6,6.7,6.6,6.8,6.6c0.1,0-2.8-3-6.4-6.6s-6.7-6.6-6.8-6.6
	C209.7,277.8,212.6,280.8,216.2,284.4 M207.4,298.8c2.5,2.5,4.7,4.6,4.8,4.6c0.1,0-1.9-2.1-4.4-4.6c-2.5-2.5-4.7-4.6-4.8-4.6
	S204.9,296.3,207.4,298.8 M249.2,317c2,2,3.7,3.6,3.8,3.6c0.1,0-1.4-1.6-3.4-3.6c-2-2-3.7-3.6-3.8-3.6
	C245.7,313.4,247.2,315,249.2,317 M175.1,319.4c0,0.8,0.1,1.1,0.2,0.7c0.1-0.4,0.1-1,0-1.4C175.2,318.3,175.1,318.6,175.1,319.4
	 M45.9,327.4c0,0.8,0.1,1.1,0.2,0.7c0.1-0.4,0.1-1,0-1.4C46,326.3,45.9,326.6,45.9,327.4 M182.6,336.4c0.5,0.7,1,1.2,1.1,1.1
	c0.1-0.1-0.3-0.6-1-1.2l-1.1-1.1L182.6,336.4 M185.4,339.2c0.7,0.8,1.4,1.4,1.6,1.4c0.1,0-0.4-0.6-1.2-1.4c-0.7-0.8-1.4-1.4-1.6-1.4
	C184.1,337.8,184.7,338.4,185.4,339.2 M211.9,348.5c0.4,0.1,1,0.1,1.4,0c0.4-0.1,0.1-0.2-0.7-0.2
	C211.8,348.3,211.5,348.4,211.9,348.5 M51.4,352.2c-0.4,0.3-0.2,0.3,0.8,0.1c1.7-0.3,2.1-0.5,0.8-0.5
	C52.4,351.8,51.7,352,51.4,352.2 M103,353.1c0,0.1,0.6,0.7,1.3,1.3l1.3,1.2l-1.2-1.3C103.3,353.1,103,352.8,103,353.1 M45.9,360
	c0,0.9,0.1,1.2,0.2,0.7c0.1-0.5,0.1-1.2,0-1.6C46,358.7,45.9,359.1,45.9,360 M134.1,400.5c0.9,0.1,2.5,0.1,3.4,0
	c0.9-0.1,0.2-0.2-1.7-0.2C133.9,400.3,133.2,400.4,134.1,400.5 M158.2,407.9c0,0.1,0.6,0.7,1.3,1.3l1.3,1.2l-1.2-1.3
	C158.5,407.9,158.2,407.6,158.2,407.9 M-52.8,409.5l-1.2,1.3l1.3-1.2c0.7-0.6,1.3-1.2,1.3-1.3C-51.4,408-51.7,408.3-52.8,409.5
	 M8.3,416.5c11,0.1,28.8,0.1,39.6,0c10.8-0.1,1.9-0.1-19.9-0.1S-2.6,416.4,8.3,416.5 M103.9,416.5c5.7,0.1,14.9,0.1,20.6,0
	c5.7-0.1,1-0.1-10.3-0.1S98.2,416.4,103.9,416.5 M124.2,438.3c0,0.1,0.6,0.7,1.3,1.3l1.3,1.2l-1.2-1.3
	C124.5,438.3,124.2,438,124.2,438.3 M131.5,455c0,1.4,0.1,2,0.2,1.3c0.1-0.7,0.1-1.9,0-2.6C131.6,453,131.5,453.6,131.5,455
	 M16.6,462c0.7,0.8,1.4,1.4,1.6,1.4s-0.4-0.6-1.2-1.4c-0.7-0.8-1.4-1.4-1.6-1.4S15.9,461.2,16.6,462 M91.2,496.3l-2,2.1l2.1-2
	c1.2-1.1,2.1-2,2.1-2.1C93.4,494,93,494.3,91.2,496.3 M115.2,496.6c1.1,1.1,2.1,2,2.2,2s-0.7-0.9-1.8-2c-1.1-1.1-2.1-2-2.2-2
	C113.3,494.6,114.1,495.5,115.2,496.6 M83.6,503.5l-1.6,1.7l1.7-1.6c1.6-1.5,1.9-1.8,1.6-1.8C85.2,501.8,84.5,502.6,83.6,503.5
	 M123.8,505.5c0,0.1,0.6,0.7,1.3,1.3l1.3,1.2l-1.2-1.3C124.1,505.5,123.8,505.2,123.8,505.5 M76.2,510.5l-2.2,2.3l2.3-2.2
	c2.1-2,2.5-2.4,2.2-2.4C78.4,508.2,77.4,509.2,76.2,510.5 M101.6,510.7l-1.2,1.3l1.3-1.2c1.2-1.1,1.5-1.4,1.2-1.4
	C102.8,509.4,102.2,510,101.6,510.7 M107.8,513.1c1,1,1.8,1.9,1.9,1.9c0.3,0,0-0.4-1.8-2l-1.9-1.8L107.8,513.1 M69,517.3l-2.6,2.7
	l2.7-2.6c1.5-1.4,2.7-2.6,2.7-2.7C71.8,514.4,71.4,514.8,69,517.3 M110.6,515.5c0,0.1,0.6,0.7,1.3,1.3l1.3,1.2l-1.2-1.3
	C110.9,515.5,110.6,515.2,110.6,515.5 M133.4,515.5c0,0.1,1.4,1.5,3.1,3.1l3.1,3l-3-3.1C133.8,515.6,133.4,515.2,133.4,515.5
	 M94.4,517.5l-1.6,1.7l1.7-1.6c1.6-1.5,1.9-1.8,1.6-1.8C96,515.8,95.3,516.6,94.4,517.5 M118.2,522.8c0.7,0.8,1.4,1.4,1.6,1.4
	s-0.4-0.6-1.2-1.4c-0.7-0.8-1.4-1.4-1.6-1.4S117.5,522,118.2,522.8 M88,523.5l-1.2,1.3l1.3-1.2c1.2-1.1,1.5-1.4,1.2-1.4
	C89.2,522.2,88.6,522.8,88,523.5 M121.4,526c0.7,0.8,1.4,1.4,1.6,1.4s-0.4-0.6-1.2-1.4s-1.4-1.4-1.6-1.4S120.7,525.2,121.4,526
	 M80.6,530.5l-2.6,2.7l2.7-2.6c2.5-2.4,2.9-2.8,2.6-2.8C83.2,527.8,82,529,80.6,530.5 M147.2,529.8c0.9,0.9,1.7,1.6,1.8,1.6
	s-0.5-0.7-1.4-1.6c-0.9-0.9-1.7-1.6-1.8-1.6S146.3,528.9,147.2,529.8 M151.4,534c1.2,1.2,2.3,2.2,2.4,2.2s-0.8-1-2-2.2
	c-1.2-1.2-2.3-2.2-2.4-2.2S150.2,532.8,151.4,534 M134,539c2.2,2.2,4.1,4,4.2,4s-1.6-1.8-3.8-4s-4.1-4-4.2-4S131.8,536.8,134,539
	 M143.4,548.8c2.1,2.1,3.9,3.8,4,3.8s-1.5-1.7-3.6-3.8c-2.1-2.1-3.9-3.8-4-3.8S141.3,546.7,143.4,548.8 M171.1,555.8
	c0,1.2,0.1,1.7,0.2,1.1c0.1-0.6,0.1-1.6,0-2.2C171.2,554.1,171.1,554.6,171.1,555.8 M-47.7,555.8c0,0.8,0.1,1.1,0.2,0.7
	c0.1-0.4,0.1-1,0-1.4C-47.6,554.7-47.7,555-47.7,555.8 M247.4,565.3l-1.4,1.5l1.5-1.4c0.8-0.8,1.5-1.4,1.5-1.5
	C249,563.6,248.7,563.9,247.4,565.3 M-42.6,566.4c0.7,0.8,1.4,1.4,1.6,1.4s-0.4-0.6-1.2-1.4c-0.7-0.8-1.4-1.4-1.6-1.4
	S-43.3,565.6-42.6,566.4 M258.4,576.7l-2.4,2.5l2.5-2.4c1.4-1.3,2.5-2.4,2.5-2.5C261,574,260.6,574.4,258.4,576.7 M174.7,579.6
	c0,0.9,0.1,1.2,0.2,0.7c0.1-0.5,0.1-1.2,0-1.6C174.8,578.3,174.7,578.7,174.7,579.6"/>
</svg>
