<?xml version="1.0" encoding="utf-8"?>
<!-- Generator: Adobe Illustrator 19.0.0, SVG Export Plug-In . SVG Version: 6.00 Build 0)  -->
<svg version="1.1" id="svg" xmlns="http://www.w3.org/2000/svg" xmlns:xlink="http://www.w3.org/1999/xlink" x="0px" y="0px"
	 viewBox="-97 162.2 400 517.7" style="enable-background:new -97 162.2 400 517.7;" xml:space="preserve">
<style type="text/css">
	.st0{fill:#C4CBCB;}
	.st1{display:none;fill:#FCFCFC;}
	.st2{fill:#DCDCDD;}
	.st3{fill:#F3F4F4;}
	.st4{fill:#ECECEF;}
</style>
<path id="path0" class="st0" d="M37.9,226.2c-2.7,1-5.4,3.5-6.6,5.9l-0.9,1.9l-0.2,32.4L30,298.8L-2.2,299l-32.2,0.2l-2.3,1.1
	c-2.5,1.2-4.2,2.9-5.6,5.6l-0.9,1.7v149.8v149.8l1.1,2.2c1.4,2.8,4,4.9,7.5,6.1l2.6,0.9l99.6,0.1c67.3,0.1,100.1,0,101-0.3
	c2.2-0.7,4.6-3,6.1-6l1.3-2.7l0.2-32.2l0.2-32.2l32.2-0.2c29.4-0.2,32.3-0.3,33.7-0.9c2.7-1.2,4.6-3,5.9-5.6l1.2-2.5l-0.1-150.2
	l-0.1-150.2l-1.1-1.9c-1.2-2-3.2-3.7-6.4-5.3l-1.9-1l-99.9,0C41.4,225.4,40,225.4,37.9,226.2 M224.1,250.7l1.1,1.1v132.6V517
	l-1.1,1.1l-1.1,1.1l-35.6,0.1c-28.6,0.1-35.6,0-35.6-0.4c0-0.3,0-13.6,0-29.5c0-35.9-0.1-37.2-4.1-40.6c-3.5-3,0.5-2.7-48.9-3
	l-44.4-0.2L54.3,349l-0.1-96.6l0.9-1.1c0.5-0.6,1.2-1.2,1.7-1.4c0.5-0.2,38.1-0.3,83.5-0.3l82.7,0.1L224.1,250.7 M137,275.2
	c-4.4,1.6-7.1,4.2-8.4,8c-1.3,3.6-1.2,77.8,0,81.1c4.5,12,20.6,10,23-2.8c0.8-4.2,0.8-71.4,0-75.9
	C150.3,278.4,142.8,273.1,137,275.2 M30,384.8l0,61.6l0.8,2.3c1.5,4,2.8,5.5,36.3,39.1c18.1,18.2,37.2,37.4,42.5,42.8
	c13.2,13.4,11.7,12.8,30,12.6c6.2,0,11.5,0.1,11.8,0.2c0.9,0.6,0.7,45.8-0.2,47.3c-1.3,1.9,1.2,1.9-85.5,1.8l-82.8-0.1l-1.1-1.1
	l-1.1-1.1l-0.1-131.7c-0.1-96.4,0-132,0.3-132.8c1.1-2.7,0.9-2.6,26.8-2.6l22.2,0.1L30,384.8 M135.5,397.7c-2.7,0.9-6.2,4.6-7,7.3
	c-3.6,12.2,11.1,21.2,19.9,12.2C157.2,408,147.6,393.4,135.5,397.7 M125.3,470.3c0.7,0.4,1.5,1.1,1.7,1.7c0.4,1,0.6,45.3,0.3,45.7
	c-0.1,0.1-1.4-0.9-2.7-2.3c-1.4-1.4-8.9-8.7-16.7-16.4c-30.6-30-29.5-28.8-28.8-29.3C80.2,469,123.8,469.5,125.3,470.3"/>
<path id="path1" class="st1" d="M-97,421v258.8h200h200V421V162.2H103H-97V421 M242.2,226c4.7,2.2,6.8,4.8,7.6,9.4
	c0.5,2.8,0.5,196.2,0.1,262.5l-0.2,37.6l-1.4,2.2c-4,6.1-3.3,6-40.2,6h-30.9l-0.3,9.5c-0.2,5.2-0.2,19.3-0.1,31.3
	c0.1,22.7,0.2,22.6-1.5,26.4c-0.3,0.7-1.3,2.1-2.2,3.1c-3,3.3,7.2,3-105.5,2.9l-100.6-0.1l-2.1-0.9c-3.9-1.6-7-4.5-8.1-7.7
	c-0.4-1-0.5-37.7-0.5-150.8l0-149.4l1.2-2.5c0.8-1.8,1.7-2.9,3.2-4.1c3.7-2.9,2.4-2.8,37.5-2.8h31.3l0-31.3c0-32.9,0-32.8,1.8-36.2
	c1-1.9,3-3.6,5.6-4.9l2.4-1.2l100.4,0l100.4,0L242.2,226 M59.1,250.2c-1.8,0.2-2.8,0.5-3.4,1.2l-0.9,0.9l-0.1,96.4L54.6,445
	l43.9,0.1l43.9,0.1l2.2,1c3.1,1.4,4.9,3.2,6,5.7l1,2.1l0.2,32.4l0.2,32.4h35c38.7,0,36.6,0.1,37.6-2.4c0.2-0.6,0.4-49.8,0.4-132.4
	V252.6l-0.9-1.1c-0.6-0.7-1.6-1.2-2.7-1.4C219.2,249.8,62.7,249.8,59.1,250.2 M144.9,275.6c2.9,1.4,4.6,3,5.9,5.7l1.2,2.3v40.2V364
	l-0.9,1.9c-4.8,9.9-19.1,9-23.1-1.4c-0.9-2.4-1.5-70.1-0.6-77.6C128.4,277.2,137,271.8,144.9,275.6 M-16.5,324.1
	c-2.5,0.5-2.3-11.2-2.3,134v131.7l1.1,1.1l1.1,1.1h82.7c78,0,82.8,0,83.8-0.7c1.8-1.2,1.9-2.3,1.8-25.6l-0.1-21.7l-13.6-0.2
	l-13.6-0.2l-2.4-1.2c-2.7-1.3-3-1.6-58.6-57.8c-18.6-18.7-30.7-31.3-31.5-32.6c-2.7-4.3-2.5-0.6-2.5-67.6v-60.7l-22.5,0.1
	C-5.5,323.9-16,324-16.5,324.1 M144.1,397c8.2,3.1,10.8,13.7,5,20.2c-4.5,5.1-13.7,5.1-18.4,0C121.8,407.6,131.9,392.5,144.1,397
	 M85.2,476.1c12,11.7,38.4,37.6,39.8,39c0.8,0.8,1.6,1.5,1.7,1.5c0.7,0,0.3-43.8-0.4-44.7c-1.4-1.7-1.5-1.7-24.8-1.7l-22.3,0
	L85.2,476.1"/>
<path id="path2" class="st2" d="M33.8,228.5c-0.9,0.8-1.8,1.8-2,2.3c-0.2,0.5,0.1,0.3,0.6-0.5c0.6-0.7,1.6-1.7,2.3-2.3
	c0.7-0.6,1.1-1,1-1C35.5,227,34.7,227.7,33.8,228.5 M244.2,227.6c0.5,0.4,1.7,1.4,2.6,2.3s1.4,1.2,1.1,0.8c-0.5-1-2-2.3-3.5-3.2
	C243.2,226.9,243.2,226.9,244.2,227.6 M29.8,267.1c-0.1,17.5-0.1,31.7,0.1,31.6c0.2-0.2,0.3-14.5,0.2-31.9L30,235.2L29.8,267.1
	 M249.6,384.2c0,82,0,115.5,0.1,74.5s0.1-108,0-149S249.6,302.2,249.6,384.2 M56.7,249.8c-0.5,0.2-1,0.6-1.2,0.9
	c-0.2,0.4-0.1,0.3,0.4-0.1c0.6-0.5,10.7-0.6,83.4-0.8l82.6-0.2l-82.2-0.1C94.2,249.5,57.2,249.6,56.7,249.8 M222.6,250.1
	c0.3,0.1,1,0.6,1.6,1.1l1,0.8l-1-1.1c-0.5-0.6-1.3-1.1-1.6-1.1C222.1,249.9,222.1,249.9,222.6,250.1 M54.4,252
	c-0.1,0.4-0.2,1-0.2,1.3c0,0.4,0.2,0.1,0.4-0.5C55,251.6,54.9,250.9,54.4,252 M130.6,279c-0.7,0.9-1.2,1.6-1.1,1.6s0.8-0.7,1.5-1.6
	s1.2-1.6,1.1-1.6S131.3,278.1,130.6,279 M127.6,323.6c0,20.9,0,29.5,0.1,19.1c0.1-10.4,0.1-27.5,0-38
	C127.6,294.2,127.6,302.7,127.6,323.6 M-16.9,298.9c8.5,0.1,22.4,0.1,30.8,0c8.4-0.1,1.4-0.1-15.5-0.1S-25.4,298.8-16.9,298.9
	 M-40.8,303.1c-0.8,0.9-1.4,1.9-1.4,2.1s0.3,0,0.7-0.6c0.4-0.5,1.1-1.5,1.7-2.1c0.6-0.6,0.9-1.1,0.8-1.1
	C-39.2,301.4-40,302.1-40.8,303.1 M7.6,323.3l22.2,0.1l0.1,48.7l0.1,48.7l0-48.8l0-48.8l-22.3,0l-22.3,0L7.6,323.3 M-17.7,324.1
	c-0.4,0.4-0.6,0.6-0.3,0.4c0.2-0.2,0.9-0.5,1.4-0.7c0.6-0.2,0.7-0.4,0.3-0.4C-16.6,323.4-17.3,323.7-17.7,324.1 M-19.3,327.6
	c0,0.9,0.1,1.2,0.2,0.7c0.1-0.5,0.1-1.2,0-1.6C-19.2,326.3-19.3,326.7-19.3,327.6 M128.6,365.3c0,0.2,0.4,0.8,0.8,1.4l0.8,0.9
	l-0.7-1.2C128.6,364.8,128.6,364.8,128.6,365.3 M148,369.1l-1.6,1.7l1.7-1.6c1.6-1.5,1.9-1.8,1.6-1.8
	C149.6,367.4,148.9,368.2,148,369.1 M131.4,369.2c0.7,0.8,1.4,1.4,1.6,1.4s-0.4-0.6-1.2-1.4c-0.7-0.8-1.4-1.4-1.6-1.4
	S130.7,368.4,131.4,369.2 M139.8,372.2l-3,0.3l2.8,0.1c1.5,0,3.1-0.1,3.4-0.3c0.3-0.2,0.4-0.4,0.2-0.3
	C143,371.9,141.4,372.1,139.8,372.2 M138.9,396.9c0.7,0.1,1.9,0.1,2.6,0c0.7-0.1,0.1-0.2-1.3-0.2
	C138.8,396.7,138.2,396.8,138.9,396.9 M131.6,399.9c-1,0.9-2,2-2.2,2.5s0.1,0.2,0.7-0.5c0.6-0.7,1.8-1.9,2.5-2.5
	c0.8-0.6,1.3-1.2,1.1-1.2C133.5,398.2,132.6,398.9,131.6,399.9 M127.5,408.6c0,1,0.1,1.4,0.2,0.9c0.1-0.5,0.1-1.3,0-1.8
	C127.6,407.2,127.5,407.6,127.5,408.6 M151.9,408.8c0,0.9,0.1,1.2,0.2,0.7c0.1-0.5,0.1-1.2,0-1.6C152,407.5,151.9,407.9,151.9,408.8
	 M150.8,413.5c-0.2,0.5-0.8,1.6-1.4,2.4c-0.6,0.8-1.2,1.6-1.2,1.8c0,0.2,0.6-0.4,1.2-1.3c1.3-1.6,2.1-3.3,1.8-3.6
	C151.2,412.6,150.9,413,150.8,413.5 M130.4,416.5c1.4,1.6,4.1,3.6,4.8,3.6c0.2,0-0.2-0.4-1-0.8s-2.2-1.6-3.2-2.5
	C129.6,415.6,129.5,415.5,130.4,416.5 M54.5,445.5c0.2,0.2,19.8,0.3,43.7,0.2l43.4-0.1l-43.7-0.2C73.9,445.3,54.4,445.3,54.5,445.5
	 M34.4,455c0.6,0.8,1.3,1.4,1.4,1.3c0.1-0.1-0.4-0.7-1.2-1.4l-1.4-1.3L34.4,455 M151.5,457.6c0,0.9,0.1,1.2,0.2,0.7
	c0.1-0.5,0.1-1.2,0-1.6C151.6,456.3,151.5,456.7,151.5,457.6 M90.3,469.7c6.1,0.1,16,0.1,22,0c6-0.1,1-0.1-11.1-0.1
	C89.1,469.6,84.2,469.6,90.3,469.7 M78.6,470.1c0,0.2,0.5,0.8,1.1,1.4l1.1,1l-1-1.2c-0.6-0.7-1-1.3-1.1-1.4
	C78.6,469.7,78.6,469.8,78.6,470.1 M83.4,475.2c1.4,1.4,2.7,2.6,2.8,2.6s-1-1.2-2.4-2.6c-1.4-1.4-2.7-2.6-2.8-2.6
	S82,473.8,83.4,475.2 M90.6,482c0,0.3,0.7,0.9,1.8,1.8c0.4,0.3,0.3,0-0.4-0.7C90.8,481.8,90.6,481.6,90.6,482 M65.2,486.1
	c1.5,1.6,2.9,2.9,2.9,2.9c0.3,0-2.5-3-4.1-4.4C63.1,483.9,63.7,484.5,65.2,486.1 M93,484.7c0.1,0.1,2.4,2.3,5.2,4.9l5,4.8l-4.8-4.9
	c-2.6-2.7-5-4.9-5.2-4.9C93,484.6,92.9,484.6,93,484.7 M69.4,490.3c0,0.1,7.1,7.1,15.7,15.7l15.7,15.6l-14.8-15
	C72.8,493.2,69.4,489.9,69.4,490.3 M107.8,498.8c0,0.2,0.4,0.7,0.9,1.1c0.5,0.4,3.8,3.6,7.4,7.2c3.6,3.5,6.5,6.4,6.5,6.2
	c0-0.1-3.3-3.5-7.4-7.6C111.1,501.8,107.8,498.6,107.8,498.8 M-43.6,557c0,26.7,0,37.7,0.1,24.3s0.1-35.2,0-48.6
	S-43.6,530.3-43.6,557 M127.3,515.9c-0.1,0.9-0.3,1.3-0.7,1.2c-0.5-0.1-0.5,0-0.1,0.4c0.7,0.7,1.3-0.2,1.3-1.8
	C127.8,514.2,127.5,514.3,127.3,515.9 M224.3,517.4c-0.3,0.4-0.9,1-1.4,1.2c-0.6,0.2-0.7,0.4-0.3,0.4c0.6,0,2.6-1.8,2.3-2.2
	C224.9,516.7,224.5,517,224.3,517.4 M217.7,519.3c0.7,0.1,2,0.1,2.8,0c0.8-0.1,0.2-0.2-1.3-0.2C217.7,519.1,217,519.2,217.7,519.3
	 M111.4,532.8c0.7,0.8,1.4,1.4,1.6,1.4s-0.4-0.6-1.2-1.4s-1.4-1.4-1.6-1.4S110.7,532,111.4,532.8 M116.2,537.5
	c1.6,1.7,3.1,3,3.2,2.9c0.1-0.1,0.1-0.2,0-0.3c-0.1-0.1-1.5-1.4-3.2-2.9l-3-2.8L116.2,537.5 M125.5,543.3c0.4,0.1,1,0.1,1.4,0
	c0.4-0.1,0.1-0.2-0.7-0.2S125.1,543.2,125.5,543.3 M135.3,543.3c1.4,0.1,3.6,0.1,5,0s0.3-0.1-2.5-0.1S133.9,543.2,135.3,543.3
	 M146.5,543.3c0.5,0.1,1.3,0.1,1.8,0c0.5-0.1,0.1-0.2-0.9-0.2C146.4,543.1,146,543.2,146.5,543.3 M176.4,543.5
	c-0.1,0.3-0.1,14.4-0.1,31.3l0.1,30.8l0.1-31.1l0.1-31.1l31.5-0.1l31.5-0.1l-31.5-0.1C183.2,543,176.5,543.1,176.4,543.5 M152,566.4
	c0,11.9,0.1,16.7,0.1,10.7c0.1-6,0.1-15.7,0-21.6C152,549.6,152,554.5,152,566.4 M-15.7,592.5c0.4,0.1,1,0.1,1.4,0
	c0.4-0.1,0.1-0.2-0.7-0.2S-16.1,592.4-15.7,592.5 M146.9,592.5c0.5,0.1,1.2,0.1,1.6,0c0.4-0.1,0-0.2-0.9-0.2
	C146.7,592.3,146.4,592.4,146.9,592.5 M173.7,612c-0.6,1-1.8,2.3-2.8,3c-0.9,0.7-1.5,1.2-1.3,1.2c1.1,0,5.9-5.2,5.3-5.8
	C174.9,610.3,174.3,611.1,173.7,612"/>
<path id="path3" class="st3" d="M250,353.2c0,64,0,90.1,0.1,58.1c0.1-32.1,0.1-84.5,0-116.4C250,262.9,250,289.2,250,353.2
	 M58.9,250.1c0.5,0.1,1.3,0.1,1.8,0c0.5-0.1,0.1-0.2-0.9-0.2C58.8,249.9,58.4,250,58.9,250.1 M130.8,278.3l-1.2,1.3l1.3-1.2
	c0.7-0.6,1.3-1.2,1.3-1.3C132.2,276.8,131.9,277.1,130.8,278.3 M147.4,277.1c0,0.1,0.6,0.7,1.3,1.3l1.3,1.2l-1.2-1.3
	C147.7,277.1,147.4,276.8,147.4,277.1 M127.2,324.2c0,19.7,0,27.7,0.1,17.9c0.1-9.8,0.1-26,0-35.8
	C127.2,296.5,127.2,304.5,127.2,324.2 M-7,323.7c20.1,0.3,36.7,0.3,36.5,0c-0.1-0.2-10.1-0.3-22.3-0.2
	C-4.9,323.5-11.3,323.6-7,323.7 M139.7,396.5c0.5,0.1,1.3,0.1,1.8,0c0.5-0.1,0.1-0.2-0.9-0.2C139.6,396.3,139.2,396.4,139.7,396.5
	 M76.3,445.3c11.6,0.1,30.5,0.1,42,0c11.5-0.1,2-0.1-21.1-0.1S64.7,445.2,76.3,445.3 M90.3,470.1c6.1,0.1,16,0.1,22,0
	c6-0.1,1-0.1-11.1-0.1C89.1,470,84.2,470,90.3,470.1 M127,496.3c-0.1,11.4-0.1,20.5,0.1,20.4c0.2-0.2,0.3-9.5,0.2-20.7l-0.1-20.4
	L127,496.3 M55.8,477.1c0,0.1,0.6,0.7,1.3,1.3l1.3,1.2l-1.2-1.3C56.1,477.1,55.8,476.8,55.8,477.1 M92,483c0.9,0.9,1.7,1.6,1.8,1.6
	s-0.5-0.7-1.4-1.6c-0.9-0.9-1.7-1.6-1.8-1.6S91.1,482.1,92,483 M67.6,489c1.8,1.8,3.3,3.2,3.4,3.2s-1.2-1.4-3-3.2
	c-1.8-1.8-3.3-3.2-3.4-3.2S65.9,487.2,67.6,489 M73.4,494.8c1.2,1.2,2.3,2.2,2.4,2.2s-0.8-1-2-2.2c-1.2-1.2-2.3-2.2-2.4-2.2
	S72.2,493.6,73.4,494.8 M80,501.4c2.2,2.2,4.1,4,4.2,4s-1.6-1.8-3.8-4c-2.2-2.2-4.1-4-4.2-4S77.8,499.2,80,501.4 M108.2,498.7
	c0,0.1,0.6,0.7,1.3,1.3l1.3,1.2l-1.2-1.3C108.5,498.7,108.2,498.4,108.2,498.7 M111.4,501.9c0,0.1,0.6,0.7,1.3,1.3l1.3,1.2l-1.2-1.3
	C111.7,501.9,111.4,501.6,111.4,501.9 M105.8,527.5c0,0.1,0.6,0.7,1.3,1.3l1.3,1.2l-1.2-1.3C106.1,527.5,105.8,527.2,105.8,527.5
	 M110.8,532.6c1.1,1.1,2.1,2,2.2,2s-0.7-0.9-1.8-2c-1.1-1.1-2.1-2-2.2-2S109.7,531.5,110.8,532.6 M195.5,543.7
	c6.1,0.1,16.1,0.1,22.2,0c6.1-0.1,1.1-0.1-11.1-0.1S189.4,543.6,195.5,543.7 M176.8,548.6c0,2.8,0.1,3.9,0.1,2.5s0.1-3.6,0-5
	S176.8,545.8,176.8,548.6 M176.8,596.2c0,3.8,0.1,5.4,0.1,3.5s0.1-5.1,0-7S176.8,592.3,176.8,596.2 M-44.1,600.6
	c0,1,0.1,1.4,0.2,0.9c0.1-0.5,0.1-1.3,0-1.8C-44,599.2-44.1,599.6-44.1,600.6"/>
<path id="path4" class="st4" d="M89.7,225.3c27.6,0.1,72.6,0.1,100.2,0c27.6-0.1,5-0.1-50.1-0.1S62.1,225.2,89.7,225.3 M33.2,228.7
	L32,230l1.3-1.2c1.2-1.1,1.5-1.4,1.2-1.4C34.4,227.4,33.8,228,33.2,228.7 M29.6,267.2c0,16.9,0.1,23.8,0.1,15.3
	c0.1-8.5,0.1-22.4,0-30.8C29.6,243.3,29.6,250.3,29.6,267.2 M54.4,349.4c0,84.8,0.1,95.8,0.6,95.9c0.4,0.1,0.5,0.1,0.1-0.2
	c-0.4-0.3-0.5-20.1-0.6-95.9l-0.1-95.6L54.4,349.4 M225.2,384.4c0,71.9,0,101.3,0.1,65.3c0.1-36,0.1-94.9,0-130.8
	C225.2,283,225.2,312.5,225.2,384.4 M140.7,274.9c0.4,0.1,1,0.1,1.4,0c0.4-0.1,0.1-0.2-0.7-0.2C140.6,274.7,140.3,274.8,140.7,274.9
	 M-43.7,309c0,0.8,0.1,1.1,0.2,0.7c0.1-0.4,0.1-1,0-1.4C-43.6,307.9-43.7,308.2-43.7,309 M-43.6,410c0,54.3,0,76.5,0.1,49.3
	c0.1-27.2,0.1-71.7,0-98.8C-43.6,333.4-43.6,355.7-43.6,410 M29.6,384.4c0,33.2,0,46.9,0.1,30.3c0.1-16.5,0.1-43.7,0-60.4
	C29.6,337.6,29.6,351.2,29.6,384.4 M-19.2,458.2c0,71.2,0,100.3,0.1,64.7c0.1-35.6,0.1-93.8,0-129.4S-19.2,387-19.2,458.2
	 M148.4,369.1l-1.2,1.3l1.3-1.2c0.7-0.6,1.3-1.2,1.3-1.3C149.8,367.6,149.5,367.9,148.4,369.1 M130.6,400.5l-1.4,1.5l1.5-1.4
	c0.8-0.8,1.5-1.4,1.5-1.5C132.2,398.8,131.9,399.1,130.6,400.5 M147.4,399.1c0,0.1,0.6,0.7,1.3,1.3l1.3,1.2l-1.2-1.3
	C147.7,399.1,147.4,398.8,147.4,399.1 M130.2,416.7c0,0.1,0.6,0.7,1.3,1.3l1.3,1.2l-1.2-1.3C130.5,416.7,130.2,416.4,130.2,416.7
	 M42.2,463.2c3.4,3.4,6.3,6.2,6.4,6.2s-2.6-2.8-6-6.2s-6.3-6.2-6.4-6.2S38.8,459.8,42.2,463.2 M79,470.1c0,0.2,0.5,0.8,1.1,1.4
	l1.1,1l-1-1.2c-0.6-0.7-1-1.3-1.1-1.4C79,469.7,79,469.8,79,470.1 M82.6,474c0.7,0.8,1.4,1.4,1.6,1.4s-0.4-0.6-1.2-1.4
	c-0.7-0.8-1.4-1.4-1.6-1.4S81.9,473.2,82.6,474 M127.1,474.4c0,0.9,0.1,1.2,0.2,0.7c0.1-0.5,0.1-1.2,0-1.6
	C127.2,473.1,127.1,473.5,127.1,474.4 M84.6,475.9c0,0.1,1.4,1.5,3.1,3.1l3.1,3l-3-3.1C85,476,84.6,475.6,84.6,475.9 M99,489.9
	c0,0.1,0.6,0.7,1.3,1.3l1.3,1.2l-1.2-1.3C99.3,489.9,99,489.6,99,489.9 M103.8,494.8c1.2,1.2,2.3,2.2,2.4,2.2s-0.8-1-2-2.2
	c-1.2-1.2-2.3-2.2-2.4-2.2S102.6,493.6,103.8,494.8 M93.4,514.8c3.8,3.9,7.1,7,7.2,7s-2.9-3.1-6.8-7c-3.8-3.8-7.1-7-7.2-7
	S89.6,510.9,93.4,514.8 M123.4,513.9c2.9,3,4,3.8,4,2.8c0-0.1-0.1-0.1-0.3,0c-0.2,0.2-1.8-1.2-3.7-3l-3.4-3.3L123.4,513.9
	 M130.4,543.7c11,0.3,21.3,0.3,21.1,0c-0.1-0.2-5.9-0.3-12.9-0.2C131.7,543.5,128,543.6,130.4,543.7 M178.5,543.7
	c1.2,0.1,3,0.1,4.2,0s0.2-0.1-2.1-0.1S177.3,543.6,178.5,543.7 M230.9,543.7c1.4,0.1,3.5,0.1,4.8,0c1.3-0.1,0.1-0.1-2.5-0.1
	C230.6,543.5,229.5,543.6,230.9,543.7 M26.1,592.5c22.1,0.1,58.1,0.1,80.2,0s4-0.1-40.1-0.1S4,592.4,26.1,592.5 M-41.4,611.5
	c0,0.1,0.6,0.7,1.3,1.3l1.3,1.2l-1.2-1.3C-41.1,611.5-41.4,611.2-41.4,611.5 M20.1,616.9c27.1,0.1,71.4,0.1,98.4,0
	c27-0.1,4.8-0.1-49.3-0.1S-7,616.8,20.1,616.9"/>
</svg>
