<svg id="svg" version="1.1" xmlns="http://www.w3.org/2000/svg" xmlns:xlink="http://www.w3.org/1999/xlink" width="400" height="400" viewBox="0, 0, 400,400"><g id="svgg"><path id="path0" d="M43.186 53.396 C 36.412 54.100,29.730 56.433,24.445 59.938 C 23.216 60.753,22.153 61.420,22.083 61.420 C 21.367 61.420,12.284 70.534,12.284 71.252 C 12.284 71.315,11.836 72.023,11.287 72.824 C 8.790 76.473,6.430 82.102,5.099 87.586 C 3.998 92.117,4.041 308.022,5.143 312.668 C 6.364 317.813,8.762 323.465,11.022 326.524 C 11.505 327.177,11.900 327.841,11.900 327.998 C 11.900 329.106,18.743 335.930,22.649 338.718 C 29.899 343.891,36.219 346.002,46.449 346.665 C 57.731 347.396,356.181 346.909,359.885 346.154 C 372.607 343.559,380.458 338.150,389.547 325.720 C 391.227 323.422,393.702 316.965,394.919 311.708 C 395.824 307.798,395.966 92.331,395.066 88.676 C 392.222 77.129,387.761 69.859,378.836 62.229 C 378.069 61.573,377.324 61.036,377.179 61.036 C 377.034 61.036,376.366 60.635,375.694 60.143 C 370.887 56.630,363.413 54.104,355.662 53.374 C 350.514 52.888,47.861 52.910,43.186 53.396 M356.814 69.752 C 357.658 69.983,359.259 70.358,360.371 70.586 C 370.591 72.678,377.258 80.487,379.094 92.514 C 379.945 98.093,379.927 301.614,379.075 307.268 C 377.934 314.842,372.478 325.144,369.609 325.144 C 369.464 325.144,369.104 325.384,368.810 325.678 C 367.293 327.196,361.275 329.389,356.622 330.120 C 351.975 330.851,46.271 330.651,42.256 329.914 C 31.138 327.876,24.525 321.984,21.607 311.516 L 20.537 307.678 20.537 200.576 C 20.537 98.723,20.571 93.316,21.231 90.256 C 21.945 86.947,23.700 82.057,24.255 81.830 C 24.427 81.759,24.568 81.490,24.568 81.232 C 24.568 80.423,28.108 76.415,30.489 74.530 C 33.279 72.321,40.182 70.052,45.776 69.506 C 50.864 69.009,354.976 69.250,356.814 69.752 M70.686 94.641 C 45.593 100.086,36.423 131.593,54.709 149.538 C 58.037 152.803,64.565 156.956,66.430 156.994 C 66.757 157.000,67.189 157.155,67.390 157.337 C 70.096 159.799,87.409 158.936,90.384 156.191 C 90.584 156.006,90.993 155.854,91.292 155.854 C 91.836 155.854,96.490 152.903,98.244 151.446 C 109.863 141.795,113.449 124.071,106.306 111.605 C 105.673 110.501,104.957 109.200,104.715 108.715 C 99.791 98.849,83.103 91.946,70.686 94.641 M272.178 111.373 C 271.655 111.808,270.360 112.904,269.299 113.808 C 266.845 115.900,258.669 122.765,258.143 123.175 C 257.924 123.346,256.876 124.248,255.815 125.179 C 254.753 126.110,252.867 127.735,251.622 128.791 C 250.377 129.846,248.556 131.401,247.575 132.246 C 245.260 134.239,242.916 136.214,238.196 140.145 C 236.084 141.904,234.271 143.437,234.165 143.552 C 234.060 143.668,232.937 144.626,231.671 145.681 C 230.405 146.737,228.937 147.969,228.408 148.419 C 226.653 149.913,218.625 156.641,218.220 156.957 C 218.001 157.128,216.953 158.029,215.892 158.960 C 214.830 159.891,212.943 161.516,211.699 162.572 C 210.454 163.628,208.633 165.182,207.652 166.027 C 205.761 167.656,203.783 169.325,199.424 172.974 C 197.946 174.211,195.523 176.264,194.039 177.535 C 192.555 178.806,190.404 180.624,189.260 181.574 C 185.839 184.413,178.737 190.382,178.119 190.938 C 177.802 191.222,176.753 192.125,175.787 192.945 C 173.615 194.785,170.175 197.734,168.943 198.810 C 167.813 199.798,166.606 199.840,165.619 198.927 C 164.944 198.302,162.940 196.665,158.766 193.331 C 157.940 192.671,157.045 191.915,156.778 191.651 C 156.511 191.387,156.122 191.171,155.914 191.171 C 155.705 191.171,155.477 191.034,155.406 190.866 C 155.336 190.699,152.169 188.064,148.369 185.012 C 144.568 181.960,141.401 179.333,141.331 179.175 C 141.260 179.016,140.972 178.887,140.691 178.887 C 140.409 178.887,140.122 178.749,140.051 178.581 C 139.947 178.332,136.523 175.551,127.176 168.123 C 126.423 167.525,125.824 167.885,121.281 171.668 C 118.832 173.708,111.437 179.630,109.381 181.198 C 108.418 181.933,106.863 183.172,105.926 183.953 C 103.477 185.992,96.082 191.914,94.026 193.482 C 93.063 194.217,91.508 195.457,90.571 196.238 C 89.634 197.020,86.536 199.514,83.685 201.780 C 80.835 204.047,76.775 207.294,74.664 208.996 C 72.553 210.697,70.566 212.295,70.250 212.546 C 69.933 212.798,68.292 214.105,66.603 215.450 C 64.914 216.796,61.200 219.754,58.349 222.025 C 55.499 224.295,52.872 226.393,52.511 226.687 C 50.611 228.234,47.603 230.651,46.342 231.643 L 44.914 232.768 44.914 269.359 L 44.914 305.951 199.904 305.855 L 354.894 305.758 354.992 244.956 L 355.089 184.154 353.264 182.383 C 351.577 180.747,346.833 176.425,342.234 172.334 C 339.733 170.110,339.960 170.314,336.240 166.933 C 331.668 162.777,331.305 162.452,328.366 159.885 C 326.915 158.618,324.597 156.545,323.213 155.278 C 319.020 151.439,313.647 146.585,309.597 142.978 C 307.486 141.097,304.981 138.840,304.031 137.961 C 303.081 137.082,301.542 135.695,300.611 134.880 C 299.680 134.064,298.493 133.012,297.972 132.541 C 297.451 132.070,295.621 130.415,293.906 128.863 C 292.190 127.312,289.750 125.118,288.484 123.988 C 287.217 122.859,285.403 121.214,284.453 120.334 C 283.503 119.454,280.998 117.203,278.887 115.330 C 276.775 113.458,274.769 111.618,274.427 111.242 C 273.644 110.378,273.354 110.395,272.178 111.373 " stroke="none" fill="#c4cbcb" fill-rule="evenodd"></path><path id="path1" d="M0.000 200.000 L 0.000 400.000 200.000 400.000 L 400.000 400.000 400.000 200.000 L 400.000 0.000 200.000 0.000 L 0.000 0.000 0.000 200.000 M359.885 53.525 C 366.016 54.621,375.967 58.792,377.735 61.008 C 377.841 61.140,378.704 61.843,379.655 62.571 C 387.422 68.517,393.283 78.277,395.445 88.868 C 396.091 92.032,396.417 299.605,395.787 306.570 C 394.159 324.558,382.965 339.057,366.352 344.691 C 358.947 347.202,371.013 347.042,198.018 346.931 L 40.883 346.831 36.868 345.763 C 21.886 341.777,10.495 330.858,5.745 315.931 C 3.748 309.656,3.820 314.335,3.940 197.813 L 4.051 89.635 5.055 86.180 C 10.210 68.443,22.828 56.665,40.013 53.550 C 44.359 52.762,355.482 52.738,359.885 53.525 M44.074 69.896 C 39.343 70.590,36.697 71.497,31.977 74.043 C 25.943 77.299,21.703 85.500,20.741 95.777 C 20.196 101.599,20.204 297.528,20.749 303.743 C 22.221 320.524,30.172 328.661,46.534 330.137 C 51.921 330.622,349.161 330.624,353.743 330.139 C 368.531 328.571,376.310 321.674,378.691 308.020 C 379.694 302.270,379.553 96.883,378.543 91.332 C 376.238 78.670,369.231 72.052,356.021 70.061 C 351.729 69.414,48.453 69.253,44.074 69.896 M86.564 95.002 C 106.573 100.868,116.955 126.080,106.126 142.506 C 105.607 143.293,105.182 144.037,105.182 144.158 C 105.182 145.385,99.214 151.440,95.710 153.769 C 67.555 172.479,32.403 140.487,48.651 110.940 C 51.499 105.762,58.773 98.273,60.955 98.273 C 61.176 98.273,61.414 98.122,61.484 97.938 C 61.816 97.070,68.215 94.816,72.937 93.904 C 75.573 93.395,83.171 94.007,86.564 95.002 M277.742 113.820 C 278.201 114.242,279.338 115.256,280.267 116.074 C 281.197 116.892,283.426 118.894,285.221 120.524 C 290.297 125.135,300.622 134.418,302.097 135.698 C 303.404 136.832,306.849 139.949,308.465 141.459 C 308.918 141.881,310.048 142.896,310.978 143.713 C 311.907 144.531,314.136 146.534,315.931 148.164 C 317.726 149.795,321.180 152.917,323.608 155.103 C 326.036 157.289,328.209 159.259,328.436 159.481 C 328.664 159.703,330.042 160.921,331.499 162.188 C 333.877 164.256,336.885 166.962,339.178 169.098 C 339.632 169.520,341.269 170.988,342.816 172.361 C 344.364 173.733,345.991 175.202,346.431 175.624 C 346.871 176.046,348.689 177.687,350.471 179.271 C 352.252 180.854,354.020 182.452,354.398 182.821 C 355.054 183.462,355.086 186.367,355.086 244.914 L 355.086 306.335 199.904 306.238 L 44.722 306.142 44.722 269.303 L 44.722 232.464 64.491 216.597 C 75.365 207.870,85.142 200.062,86.218 199.245 C 87.294 198.428,88.417 197.522,88.713 197.232 C 89.009 196.943,89.613 196.454,90.055 196.146 C 90.497 195.837,91.620 194.955,92.550 194.186 C 95.413 191.816,100.200 187.984,102.261 186.411 C 103.340 185.587,104.309 184.805,104.415 184.673 C 104.520 184.541,105.383 183.833,106.333 183.099 C 107.282 182.366,108.405 181.480,108.828 181.131 C 110.921 179.404,115.875 175.456,117.616 174.127 C 118.695 173.303,119.664 172.521,119.770 172.389 C 119.875 172.257,120.739 171.551,121.689 170.819 C 122.639 170.088,123.848 169.097,124.376 168.618 C 126.209 166.953,127.362 167.354,131.478 171.088 C 131.900 171.472,134.232 173.332,136.660 175.223 C 139.088 177.113,141.161 178.755,141.267 178.871 C 141.372 178.987,142.754 180.115,144.338 181.378 C 145.921 182.640,147.562 183.964,147.985 184.319 C 148.407 184.674,150.221 186.117,152.015 187.524 C 153.810 188.931,155.628 190.371,156.055 190.723 C 156.482 191.075,158.123 192.390,159.702 193.646 C 161.280 194.902,162.658 196.029,162.764 196.151 C 162.869 196.273,163.733 196.972,164.683 197.704 C 165.633 198.436,166.468 199.165,166.539 199.325 C 166.609 199.485,166.833 199.616,167.035 199.616 C 167.327 199.616,174.268 193.953,175.048 193.078 C 175.154 192.960,177.399 191.070,180.038 188.878 C 182.678 186.687,184.923 184.790,185.029 184.663 C 185.134 184.536,189.107 181.162,193.858 177.164 C 198.608 173.166,202.686 169.716,202.918 169.497 C 203.151 169.277,204.175 168.407,205.194 167.562 C 206.212 166.718,207.231 165.854,207.458 165.643 C 207.684 165.432,209.424 163.971,211.324 162.396 C 213.225 160.822,214.866 159.432,214.971 159.308 C 215.077 159.183,217.322 157.289,219.962 155.097 C 222.601 152.906,224.846 151.006,224.952 150.876 C 225.058 150.746,227.303 148.841,229.942 146.641 C 232.582 144.442,234.827 142.546,234.933 142.429 C 235.038 142.312,236.074 141.441,237.235 140.494 C 238.396 139.547,239.864 138.310,240.498 137.745 C 242.008 136.400,242.899 135.637,245.126 133.781 C 246.140 132.937,247.154 132.073,247.381 131.862 C 247.607 131.651,249.347 130.190,251.248 128.615 C 253.148 127.041,254.789 125.651,254.894 125.528 C 255.000 125.404,256.640 124.015,258.539 122.441 C 260.439 120.866,262.598 119.034,263.338 118.368 C 264.078 117.703,266.670 115.508,269.098 113.491 L 273.512 109.822 275.209 111.437 C 276.143 112.325,277.282 113.397,277.742 113.820 " stroke="none" fill="#fbfbfc" fill-rule="evenodd"></path><path id="path2" d="M44.242 53.240 C 44.611 53.336,45.216 53.336,45.585 53.240 C 45.955 53.143,45.653 53.064,44.914 53.064 C 44.175 53.064,43.872 53.143,44.242 53.240 M353.839 53.246 C 354.314 53.337,355.091 53.337,355.566 53.246 C 356.041 53.154,355.653 53.080,354.702 53.080 C 353.752 53.080,353.364 53.154,353.839 53.246 M381.190 64.228 C 381.190 64.294,381.751 64.855,382.438 65.475 L 383.685 66.603 382.558 65.355 C 381.507 64.192,381.190 63.931,381.190 64.228 M49.621 69.373 C 50.205 69.462,51.069 69.459,51.541 69.368 C 52.013 69.277,51.536 69.205,50.480 69.208 C 49.424 69.211,49.038 69.285,49.621 69.373 M4.028 199.616 C 4.028 257.150,4.072 280.686,4.127 251.919 C 4.181 223.153,4.181 176.080,4.127 147.313 C 4.072 118.546,4.028 142.083,4.028 199.616 M276.775 113.364 C 276.775 113.430,277.337 113.991,278.023 114.611 L 279.271 115.739 278.143 114.491 C 277.092 113.328,276.775 113.067,276.775 113.364 M307.486 141.003 C 307.486 141.069,308.047 141.631,308.733 142.251 L 309.981 143.378 308.853 142.131 C 307.802 140.968,307.486 140.706,307.486 141.003 M323.966 155.945 C 324.691 156.733,325.367 157.294,325.470 157.192 C 325.572 157.090,325.583 156.963,325.494 156.910 C 325.405 156.857,324.728 156.296,323.990 155.663 L 322.649 154.512 323.966 155.945 M353.968 182.963 C 354.477 183.621,354.972 184.091,355.066 184.007 C 355.160 183.923,354.743 183.384,354.139 182.810 L 353.041 181.766 353.968 182.963 M383.283 333.685 L 381.766 335.317 383.397 333.799 C 384.915 332.388,385.205 332.054,384.915 332.054 C 384.852 332.054,384.118 332.788,383.283 333.685 M45.976 346.919 C 46.666 347.005,47.703 347.003,48.279 346.915 C 48.856 346.828,48.292 346.758,47.025 346.760 C 45.758 346.762,45.286 346.834,45.976 346.919 M351.143 346.918 C 351.825 347.003,353.034 347.004,353.830 346.921 C 354.627 346.838,354.069 346.769,352.591 346.767 C 351.113 346.765,350.462 346.833,351.143 346.918 " stroke="none" fill="#dcdcdc" fill-rule="evenodd"></path><path id="path3" d="M126.583 69.386 C 167.596 69.440,234.707 69.440,275.720 69.386 C 316.732 69.332,283.177 69.288,201.152 69.288 C 119.127 69.288,85.571 69.332,126.583 69.386 M76.686 93.944 C 77.376 94.030,78.413 94.028,78.990 93.940 C 79.566 93.853,79.002 93.783,77.735 93.785 C 76.468 93.787,75.996 93.859,76.686 93.944 M76.686 159.203 C 77.376 159.289,78.413 159.287,78.990 159.199 C 79.566 159.112,79.002 159.042,77.735 159.044 C 76.468 159.046,75.996 159.118,76.686 159.203 M122.745 306.238 C 165.024 306.292,234.208 306.292,276.488 306.238 C 318.767 306.184,284.175 306.140,199.616 306.140 C 115.058 306.140,80.465 306.184,122.745 306.238 " stroke="none" fill="#e3e4e4" fill-rule="evenodd"></path><path id="path4" d="M382.342 64.995 C 382.342 65.061,382.903 65.623,383.589 66.243 L 384.837 67.370 383.709 66.123 C 382.658 64.960,382.342 64.699,382.342 64.995 M27.813 77.255 L 26.296 78.887 27.927 77.369 C 29.444 75.958,29.735 75.624,29.445 75.624 C 29.382 75.624,28.648 76.358,27.813 77.255 M395.967 199.616 C 395.967 257.572,396.011 281.281,396.065 252.303 C 396.120 223.325,396.120 175.907,396.065 146.929 C 396.011 117.951,395.967 141.660,395.967 199.616 M379.460 199.616 C 379.460 255.461,379.504 278.306,379.559 250.384 C 379.613 222.462,379.613 176.771,379.559 148.848 C 379.504 120.926,379.460 143.772,379.460 199.616 M99.040 101.848 C 99.040 101.914,99.602 102.475,100.288 103.095 L 101.536 104.223 100.408 102.975 C 99.357 101.812,99.040 101.551,99.040 101.848 M273.090 110.269 C 272.938 110.533,272.959 110.617,273.136 110.455 C 273.314 110.294,273.989 110.639,274.637 111.223 L 275.816 112.284 274.688 111.036 C 273.397 109.607,273.454 109.635,273.090 110.269 M44.640 127.255 C 44.642 128.311,44.717 128.697,44.805 128.114 C 44.893 127.530,44.891 126.666,44.800 126.194 C 44.709 125.722,44.637 126.200,44.640 127.255 M296.737 131.022 C 296.737 131.088,297.298 131.650,297.985 132.270 L 299.232 133.397 298.105 132.150 C 297.054 130.987,296.737 130.726,296.737 131.022 M304.798 138.388 C 305.515 139.127,306.187 139.731,306.293 139.731 C 306.398 139.731,305.899 139.127,305.182 138.388 C 304.466 137.649,303.794 137.044,303.688 137.044 C 303.583 137.044,304.082 137.649,304.798 138.388 M100.369 149.808 L 98.464 151.823 100.480 149.918 C 101.588 148.871,102.495 147.964,102.495 147.903 C 102.495 147.617,102.140 147.935,100.369 149.808 M335.509 166.027 C 336.225 166.766,336.897 167.370,337.003 167.370 C 337.108 167.370,336.609 166.766,335.893 166.027 C 335.176 165.288,334.504 164.683,334.398 164.683 C 334.293 164.683,334.792 165.288,335.509 166.027 M44.621 269.171 C 44.571 289.375,44.659 305.985,44.818 306.083 C 45.078 306.244,45.076 280.430,44.812 245.681 C 44.757 238.397,44.671 248.968,44.621 269.171 M20.435 302.111 C 20.435 302.850,20.514 303.153,20.610 302.783 C 20.707 302.414,20.707 301.809,20.610 301.440 C 20.514 301.070,20.435 301.372,20.435 302.111 M26.871 321.809 C 26.871 321.875,27.433 322.437,28.119 323.057 L 29.367 324.184 28.239 322.937 C 27.188 321.774,26.871 321.513,26.871 321.809 M46.737 330.405 C 47.212 330.497,47.989 330.497,48.464 330.405 C 48.940 330.314,48.551 330.239,47.601 330.239 C 46.651 330.239,46.262 330.314,46.737 330.405 " stroke="none" fill="#ececed" fill-rule="evenodd"></path></g></svg>