<svg xmlns="http://www.w3.org/2000/svg" width="20.055" height="20.095" viewBox="0 0 20.055 20.095">
  <g id="_992e27fc6bdbf99444d3b6e72ce934c1" data-name="992e27fc6bdbf99444d3b6e72ce934c1" transform="translate(-10 -9.03)">
    <g id="Gruppe_163" data-name="Gruppe 163" transform="translate(10 9.03)">
      <path id="Pfad_122" data-name="Pfad 122" d="M18.771-501.718v1.256l-2.814.016a20.607,20.607,0,0,0-3.069.079,3.789,3.789,0,0,0-1.75.989,4.713,4.713,0,0,0-.483.534,4.576,4.576,0,0,0-.546,1.2l-.11.384v8.673l.1.377a3.775,3.775,0,0,0,2.045,2.449,3.74,3.74,0,0,0,1.947.361l.91.02V-487.9l-.793-.012c-.753-.012-.809-.016-.993-.11a1.432,1.432,0,0,1-.612-.608l-.094-.2v-8.2l.094-.2a1.486,1.486,0,0,1,.612-.612l.2-.094,2.681-.012,2.676-.012v2.516l2.492-1.868c1.37-1.028,2.492-1.884,2.492-1.9s-1.122-.871-2.492-1.9l-2.492-1.868v1.252Z" transform="translate(-10 502.97)" fill="#41ebdf"/>
      <path id="Pfad_123" data-name="Pfad 123" d="M326.562-379.354v1.26l.8.012c.75.012.8.016.989.11a1.381,1.381,0,0,1,.608.608l.1.2v8.2l-.1.2a1.381,1.381,0,0,1-.608.608l-.2.1-2.676.012-2.681.012v-2.516l-2.492,1.868c-1.37,1.028-2.492,1.884-2.492,1.9s1.122.871,2.492,1.9l2.492,1.868v-2.508l2.8-.016a14.538,14.538,0,0,0,3.128-.1,3.959,3.959,0,0,0,2.17-1.488,4.519,4.519,0,0,0,.585-1.291l.09-.349v-8.595l-.09-.349a3.81,3.81,0,0,0-2.681-2.755,4.151,4.151,0,0,0-1.3-.122l-.934-.02Z" transform="translate(-311.511 383.114)" fill="#41ebdf"/>
    </g>
  </g>
</svg>
